{"glyphs":{":":{"x_min":0,"x_max":176,"ha":176,"o":"m 76 447 b 87 449 98 455 104 465 b 109 473 110 483 112 492 b 115 502 117 510 117 520 b 118 531 103 535 95 534 b 82 533 69 526 63 515 b 58 506 55 497 53 486 b 50 476 48 465 52 455 b 55 446 69 445 76 447 z m 109 260 b 98 260 83 254 78 243 b 68 223 55 185 71 165 b 79 154 97 167 103 174 b 110 184 112 197 115 209 b 118 220 122 231 125 242 b 128 253 119 260 109 260 z"},"$":{"x_min":0,"x_max":439,"ha":439,"o":"m 387 479 b 390 530 391 584 359 626 b 337 654 304 669 270 673 b 275 717 280 761 287 805 b 290 825 254 818 252 802 b 246 759 240 716 235 673 b 132 663 61 563 51 466 b 39 343 128 263 208 185 b 208 94 211 4 217 -87 b 187 -77 160 -53 145 -24 b 131 5 126 37 131 68 b 133 83 137 97 142 111 b 145 119 149 127 153 134 b 154 136 167 156 163 156 b 179 157 194 183 170 183 b 145 182 132 158 121 139 b 108 114 98 87 94 58 b 88 8 103 -43 138 -80 b 161 -103 190 -116 220 -118 b 221 -138 223 -157 225 -176 b 226 -196 264 -183 262 -166 b 260 -150 259 -133 258 -117 b 306 -109 351 -77 371 -29 b 420 91 324 197 247 277 b 246 278 246 279 245 280 b 246 396 253 511 265 627 b 270 626 275 624 281 622 b 347 598 350 529 348 468 b 347 448 386 462 387 479 z m 209 319 b 185 348 163 378 149 415 b 130 464 129 522 153 570 b 170 602 198 623 230 628 b 219 525 212 422 209 319 z m 304 55 b 320 16 330 -61 281 -84 b 273 -87 264 -90 256 -91 b 250 -12 246 67 245 146 b 269 119 290 90 304 55 z"},"?":{"x_min":0,"x_max":402,"ha":402,"o":"m 309 749 b 250 812 162 777 108 727 b 80 700 53 665 50 625 b 48 588 66 557 97 539 b 110 533 140 555 125 564 b 102 579 94 610 99 637 b 105 668 128 695 153 714 b 176 733 207 747 234 729 b 262 711 271 677 273 646 b 278 573 259 499 240 429 b 220 355 198 282 180 208 b 171 166 163 125 156 83 b 150 41 142 -5 147 -48 b 153 -94 233 -65 238 -31 b 246 15 247 61 254 107 b 260 153 269 199 280 244 b 300 332 327 420 341 509 b 354 586 367 686 309 749 z m 173 -155 b 169 -169 168 -187 170 -202 b 173 -229 219 -212 223 -193 b 226 -178 227 -160 224 -145 b 218 -120 178 -136 173 -155 z"},"<":{"x_min":0,"x_max":394,"ha":394,"o":"m 329 251 b 307 258 156 285 141 316 b 150 321 161 325 168 329 b 184 338 200 348 216 357 b 249 376 281 394 310 419 b 325 432 318 449 298 444 b 250 433 206 411 162 391 b 122 373 56 353 50 302 b 45 253 98 236 135 224 b 182 208 232 192 281 186 b 301 183 324 193 336 210 b 345 222 349 245 329 251 z"},"'":{"x_min":0,"x_max":177,"ha":177,"o":"m 127 631 b 118 673 106 714 87 753 b 79 768 48 754 50 739 b 57 698 64 656 69 615 b 73 585 132 605 127 631 z"},"=":{"x_min":0,"x_max":443,"ha":443,"o":"m 77 264 b 120 256 167 265 210 265 b 256 265 302 257 348 258 b 364 258 383 269 390 283 b 396 293 395 310 381 314 b 336 327 285 326 239 325 b 191 324 145 317 98 312 b 84 311 68 302 63 289 b 58 276 65 267 77 264 z m 373 218 b 277 222 177 225 83 210 b 70 208 56 202 51 189 b 48 179 52 168 64 167 b 157 164 250 170 343 166 b 360 166 379 172 387 188 b 394 200 389 217 373 218 z"},"a":{"x_min":0,"x_max":481,"ha":481,"o":"m 482 145 b 463 96 447 45 416 3 b 405 -11 382 -44 361 -32 b 344 -22 336 8 331 26 b 302 137 323 255 329 368 b 330 389 300 393 286 390 b 271 388 249 378 240 362 b 219 388 190 396 157 395 b 75 391 16 311 -8 240 b -33 171 -39 72 7 10 b 30 -21 68 -33 104 -21 b 139 -8 164 19 181 51 b 199 87 212 126 223 164 b 223 150 223 136 224 122 b 227 63 240 -17 291 -55 b 343 -92 398 -62 435 -19 b 475 28 498 89 515 148 b 521 167 487 158 482 145 z m 166 91 b 157 69 130 -3 97 19 b 66 40 61 87 59 120 b 54 190 70 262 115 317 b 133 340 164 367 194 346 b 212 334 221 316 227 295 b 209 227 192 157 166 91 z"},"L":{"x_min":0,"x_max":728,"ha":728,"o":"m 791 -52 b 735 -75 682 -105 629 -135 b 600 48 622 231 642 414 b 651 506 661 599 659 691 b 658 762 659 863 592 905 b 520 950 444 917 379 875 b 314 834 257 779 209 719 b 159 656 114 587 83 513 b 56 451 24 343 85 290 b 153 232 252 287 308 335 b 340 362 368 394 393 427 b 421 464 451 499 471 540 b 484 566 443 566 432 551 b 410 522 396 492 377 462 b 358 434 338 406 314 381 b 273 337 194 271 130 305 b 57 344 96 462 121 519 b 150 585 190 648 235 704 b 279 760 330 810 389 849 b 442 885 541 936 578 852 b 591 821 591 784 589 750 b 588 708 585 667 582 625 b 575 544 565 463 554 382 b 529 203 504 17 538 -162 b 539 -169 543 -175 548 -179 b 503 -202 457 -222 408 -237 b 347 -256 265 -259 233 -191 b 224 -171 184 -191 191 -212 b 210 -272 276 -294 335 -289 b 405 -284 473 -251 534 -218 b 597 -185 658 -149 721 -115 b 752 -99 784 -83 817 -69 b 851 -56 899 -38 925 -75 b 934 -88 964 -74 956 -60 b 921 2 841 -30 791 -52 z"},"3":{"x_min":0,"x_max":530,"ha":530,"o":"m 84 515 b 96 517 119 541 96 543 b 84 545 116 612 120 619 b 133 641 151 660 171 674 b 207 701 276 723 308 678 b 341 631 303 556 281 513 b 253 459 214 411 172 366 b 161 355 154 336 168 324 b 182 311 205 316 220 323 b 273 346 331 287 355 246 b 384 197 395 138 384 82 b 375 32 352 -24 305 -51 b 252 -82 185 -50 161 4 b 146 37 149 76 161 110 b 172 138 203 203 242 180 b 254 172 284 195 269 205 b 190 256 122 129 110 68 b 96 -14 136 -106 225 -119 b 320 -132 410 -63 450 19 b 488 96 490 187 455 266 b 423 336 362 388 291 397 b 316 429 338 463 355 500 b 380 553 401 622 379 680 b 357 735 295 753 241 744 b 185 734 132 701 97 656 b 77 631 61 603 53 572 b 47 546 48 510 84 515 z"},";":{"x_min":0,"x_max":217,"ha":217,"o":"m 127 453 b 141 469 148 491 156 510 b 161 524 144 532 133 531 b 117 529 101 520 97 505 b 94 497 92 489 90 480 b 88 472 85 462 87 454 b 90 435 119 443 127 453 z m 100 237 b 81 192 64 145 51 98 b 42 66 97 78 106 97 b 129 141 149 188 165 236 b 177 271 111 261 100 237 z"},"J":{"x_min":0,"x_max":661,"ha":661,"o":"m 843 827 b 856 819 884 842 866 853 b 833 873 793 865 759 851 b 721 835 685 813 652 788 b 601 750 556 704 514 656 b 512 667 510 679 508 690 b 500 730 494 772 484 811 b 492 815 499 818 507 821 b 520 826 533 831 547 834 b 554 836 583 846 575 831 b 561 802 610 803 620 824 b 629 846 631 872 602 877 b 573 881 538 867 512 857 b 500 852 488 847 475 841 b 474 846 472 850 471 855 b 461 880 417 854 416 834 b 416 826 416 818 416 811 b 389 796 363 780 337 763 b 282 728 228 689 179 646 b 132 605 82 561 52 506 b 48 499 51 491 59 491 b 77 489 93 493 106 505 b 120 517 110 527 97 525 b 122 560 156 590 187 618 b 225 651 265 683 307 712 b 343 736 380 759 418 779 b 420 752 423 725 426 699 b 430 655 435 611 440 568 b 343 445 261 310 200 167 b 167 89 134 3 156 -82 b 173 -151 226 -212 302 -214 b 391 -217 471 -151 508 -74 b 547 9 557 103 558 194 b 560 304 548 415 534 524 b 529 555 525 586 520 617 b 551 653 583 688 617 720 b 648 750 682 778 719 800 b 754 821 803 848 843 827 z m 455 49 b 444 -14 427 -94 373 -136 b 320 -178 249 -154 216 -98 b 175 -28 195 54 222 125 b 276 267 353 401 444 523 b 452 449 458 375 462 301 b 467 217 468 132 455 49 z"},"V":{"x_min":0,"x_max":864,"ha":864,"o":"m 1151 915 b 1166 909 1194 933 1175 941 b 1077 981 989 901 933 829 b 870 749 825 658 790 562 b 751 456 727 346 703 236 b 691 178 679 120 665 62 b 659 35 651 7 644 -20 b 640 -33 636 -46 632 -58 b 631 -61 629 -65 628 -68 b 627 -67 626 -66 626 -66 b 622 -61 620 -55 617 -49 b 612 -39 608 -27 604 -16 b 595 11 586 39 577 66 b 561 118 548 171 536 225 b 513 333 497 442 472 550 b 459 603 446 656 429 708 b 413 755 394 804 356 838 b 323 867 278 885 234 876 b 190 867 152 837 125 802 b 61 721 27 597 67 498 b 110 393 231 395 313 451 b 332 464 310 478 295 468 b 257 442 206 428 162 446 b 120 463 97 506 89 548 b 72 640 104 752 173 816 b 208 848 261 867 300 830 b 337 797 347 744 359 698 b 382 599 397 499 413 399 b 429 299 445 199 470 101 b 483 50 497 -1 518 -49 b 535 -90 557 -134 608 -128 b 653 -123 672 -84 681 -45 b 693 8 705 62 716 115 b 738 220 757 326 784 431 b 812 535 849 639 904 733 b 931 780 963 825 1001 864 b 1040 905 1094 938 1151 915 z"},"\"":{"x_min":0,"x_max":247,"ha":247,"o":"m 100 738 b 96 748 79 746 71 743 b 61 739 50 731 50 719 b 50 697 55 676 60 655 b 68 624 124 648 116 677 b 111 697 107 718 100 738 z m 197 643 b 192 662 188 681 183 700 b 179 717 177 736 165 749 b 155 760 136 747 132 737 b 126 720 130 701 132 683 b 135 665 138 646 142 627 b 148 599 203 619 197 643 z"},"7":{"x_min":0,"x_max":439,"ha":439,"o":"m 73 643 b 113 660 155 675 198 687 b 227 695 299 725 317 687 b 332 656 319 610 313 578 b 304 534 293 490 281 447 b 268 399 255 350 243 301 b 230 299 217 297 204 295 b 196 294 185 290 184 281 b 183 273 189 268 197 269 b 210 271 223 273 236 275 b 207 156 184 35 180 -87 b 179 -132 266 -105 271 -71 b 282 8 289 87 302 165 b 308 205 315 245 323 284 b 339 286 354 287 369 289 b 386 290 401 319 376 316 b 361 315 345 314 329 312 b 335 339 341 366 347 393 b 363 467 380 542 380 618 b 380 646 380 677 363 701 b 348 723 321 734 295 734 b 257 734 217 720 181 709 b 140 697 100 682 61 665 b 40 656 51 633 73 643 z"},"S":{"x_min":0,"x_max":969,"ha":969,"o":"m 794 -55 b 870 54 914 207 856 334 b 808 440 699 485 589 491 b 627 533 666 574 707 613 b 812 717 929 811 1062 876 b 1079 884 1098 895 1117 899 b 1127 901 1137 901 1145 894 b 1150 890 1157 878 1152 872 b 1137 851 1169 845 1180 860 b 1196 880 1193 906 1171 921 b 1143 941 1105 925 1077 912 b 1008 881 942 842 880 798 b 758 711 649 604 549 492 b 536 491 523 490 510 489 b 429 480 353 451 276 428 b 236 416 195 404 154 396 b 139 393 118 389 104 400 b 88 413 88 442 89 460 b 91 536 133 614 175 676 b 217 738 271 793 333 834 b 397 878 477 909 555 901 b 626 893 690 849 685 771 b 683 732 666 695 639 666 b 624 649 653 643 664 656 b 708 703 737 778 711 842 b 689 896 629 922 575 929 b 434 946 298 860 205 761 b 158 710 118 652 89 588 b 74 555 60 520 54 484 b 49 454 45 413 64 387 b 80 363 112 361 138 365 b 176 370 214 381 250 392 b 325 413 401 437 479 444 b 489 445 499 445 509 445 b 419 340 337 223 290 93 b 263 22 249 -59 270 -133 b 288 -200 337 -253 405 -268 b 485 -287 568 -253 634 -211 b 698 -170 751 -116 794 -55 z m 362 -150 b 258 -28 343 145 414 261 b 454 326 499 386 548 444 b 652 437 751 389 786 282 b 825 158 772 18 690 -77 b 612 -168 462 -268 362 -150 z"},"}":{"x_min":0,"x_max":491,"ha":491,"o":"m 433 415 b 366 494 336 597 300 692 b 282 741 262 789 234 833 b 208 873 168 905 119 885 b 102 878 105 853 125 861 b 178 881 198 790 208 755 b 222 709 234 663 245 616 b 265 540 290 464 334 399 b 303 376 281 339 272 301 b 256 235 257 166 252 98 b 247 36 240 -31 215 -89 b 193 -139 144 -184 87 -157 b 73 -150 37 -174 55 -185 b 105 -217 167 -209 215 -176 b 269 -139 298 -76 315 -15 b 334 53 335 125 340 195 b 343 229 345 263 352 297 b 354 312 358 327 365 340 b 367 344 371 351 375 354 b 377 355 382 355 378 355 b 405 354 462 382 433 415 z"},"Z":{"x_min":0,"x_max":1078,"ha":1078,"o":"m 952 205 b 954 186 991 199 989 216 b 985 255 946 267 911 268 b 866 268 821 261 778 251 b 775 250 773 249 770 249 b 812 349 844 456 842 564 b 843 565 844 565 845 566 b 902 601 961 633 1023 659 b 1086 687 1155 713 1225 717 b 1238 718 1258 720 1268 710 b 1283 696 1267 672 1257 659 b 1242 640 1273 634 1284 648 b 1301 669 1322 701 1303 727 b 1285 752 1243 747 1216 744 b 1138 736 1062 706 991 673 b 939 650 889 623 841 594 b 841 601 840 608 839 616 b 832 678 810 740 771 790 b 729 844 665 872 597 873 b 457 875 318 799 215 709 b 164 664 119 612 84 552 b 59 508 18 418 92 396 b 115 389 140 396 155 414 b 170 434 139 440 128 426 b 121 417 107 424 100 430 b 88 440 85 455 86 469 b 87 501 108 533 124 559 b 156 611 197 658 243 697 b 289 736 339 768 392 794 b 448 822 515 848 578 843 b 704 833 756 711 761 600 b 761 580 761 561 760 541 b 707 504 656 465 607 424 b 484 322 368 211 266 87 b 216 28 168 -35 132 -104 b 104 -159 65 -239 87 -302 b 113 -373 217 -362 274 -344 b 350 -320 416 -271 474 -216 b 583 -113 661 20 726 153 b 737 174 747 195 757 217 b 788 226 820 232 853 236 b 883 239 947 249 952 205 z m 473 -114 b 434 -160 392 -202 343 -238 b 296 -274 237 -311 175 -303 b 100 -294 132 -197 149 -152 b 173 -90 211 -34 251 19 b 335 130 431 230 533 324 b 604 389 679 451 757 507 b 747 407 714 309 672 217 b 619 197 568 174 517 150 b 495 140 507 116 529 127 b 571 146 613 165 656 182 b 606 78 547 -25 473 -114 z"},"x":{"x_min":0,"x_max":324,"ha":324,"o":"m 325 148 b 320 124 313 100 303 78 b 297 64 281 28 262 32 b 246 35 235 65 230 78 b 222 98 215 119 209 140 b 195 184 188 228 181 273 b 198 298 230 346 257 341 b 273 338 296 365 273 369 b 239 375 208 348 187 325 b 183 321 179 316 175 312 b 170 344 164 377 156 408 b 144 455 58 424 64 383 b 73 324 82 265 94 207 b 95 201 96 194 98 188 b 68 125 45 58 3 3 b -11 -16 17 -21 28 -8 b 65 36 86 89 109 141 b 119 107 133 73 153 44 b 185 1 240 -17 287 14 b 330 43 348 103 358 150 b 362 169 328 162 325 148 z"},")":{"x_min":0,"x_max":420,"ha":420,"o":"m 370 251 b 369 343 357 436 339 527 b 323 610 300 694 259 769 b 239 805 215 848 178 869 b 139 892 97 879 60 857 b 41 847 51 826 71 836 b 86 844 108 857 127 850 b 141 845 151 829 158 816 b 175 787 187 754 199 723 b 225 654 242 583 253 511 b 265 433 272 354 275 276 b 277 198 276 118 255 43 b 245 8 230 -25 205 -52 b 183 -75 160 -84 129 -89 b 111 -93 89 -111 87 -130 b 85 -151 104 -157 122 -157 b 206 -159 285 -92 322 -20 b 364 63 371 160 370 251 z"},"&":{"x_min":0,"x_max":654,"ha":654,"o":"m 497 332 b 441 337 384 312 346 271 b 320 244 271 161 335 147 b 351 143 373 168 351 174 b 325 180 347 222 354 234 b 365 252 380 269 398 281 b 433 304 482 313 520 292 b 562 270 571 216 564 173 b 557 130 538 90 513 54 b 465 -14 385 -84 299 -89 b 211 -94 147 -27 145 59 b 143 167 232 250 307 316 b 318 325 330 338 326 354 b 321 369 306 372 292 372 b 233 371 165 398 148 461 b 130 525 168 593 211 638 b 231 660 255 679 282 693 b 309 708 348 725 375 701 b 400 678 392 631 390 601 b 387 560 379 521 370 481 b 363 454 409 466 415 485 b 427 522 433 561 438 600 b 441 633 446 671 435 703 b 411 777 318 758 265 735 b 201 707 146 661 105 605 b 63 547 31 469 63 399 b 88 343 143 314 201 304 b 127 230 59 142 66 33 b 70 -21 95 -77 140 -109 b 189 -143 249 -150 306 -139 b 419 -118 525 -24 576 78 b 619 165 625 322 497 332 z"},"_":{"x_min":0,"x_max":516,"ha":516,"o":"m 450 -48 b 388 -43 326 -43 264 -48 b 203 -54 142 -68 80 -69 b 61 -69 33 -105 64 -108 b 124 -114 183 -103 243 -98 b 305 -93 367 -95 429 -96 b 443 -97 460 -85 465 -73 b 469 -61 463 -49 450 -48 z"},"v":{"x_min":0,"x_max":349,"ha":349,"o":"m 375 160 b 331 155 284 157 244 171 b 251 196 257 221 262 246 b 275 308 284 371 283 434 b 282 474 280 557 221 555 b 171 553 134 499 116 457 b 96 411 89 357 94 307 b 101 248 128 196 180 164 b 187 160 195 156 202 152 b 200 143 197 134 194 125 b 186 102 178 79 167 57 b 163 48 158 38 152 30 b 148 25 143 16 137 13 b 128 10 126 15 123 22 b 78 120 72 234 57 339 b 51 384 -34 354 -30 315 b -22 249 -12 183 7 118 b 20 72 42 -1 95 -15 b 154 -30 186 18 207 67 b 217 91 226 116 234 141 b 277 129 323 129 368 134 b 384 136 397 162 375 160 z m 231 268 b 225 240 219 213 212 186 b 182 203 157 228 143 266 b 115 341 128 449 185 508 b 238 563 245 456 245 423 b 247 371 240 319 231 268 z"},"O":{"x_min":0,"x_max":816,"ha":816,"o":"m 299 -159 b 361 -190 443 -167 500 -134 b 634 -54 696 110 728 255 b 762 407 759 565 710 713 b 709 716 708 719 707 722 b 747 747 789 767 834 780 b 863 788 912 796 922 756 b 926 739 958 751 955 765 b 938 839 844 811 795 792 b 762 780 729 764 699 745 b 651 868 563 994 420 996 b 268 997 156 872 101 742 b 71 672 54 598 51 522 b 47 452 54 374 90 312 b 120 260 166 224 220 202 b 217 194 213 186 210 178 b 186 115 168 45 181 -22 b 187 -54 199 -82 220 -106 b 242 -131 270 -145 299 -159 z m 181 266 b 83 349 89 517 114 630 b 140 750 205 891 325 941 b 385 965 450 960 504 926 b 559 891 596 835 620 775 b 629 753 636 731 643 708 b 632 700 621 692 610 683 b 498 594 394 487 312 368 b 283 325 256 280 234 233 b 215 242 198 253 181 266 z m 249 192 b 318 172 394 172 460 189 b 494 198 526 212 556 230 b 574 241 565 262 546 251 b 463 203 354 188 262 221 b 269 237 277 252 284 265 b 342 378 425 476 515 565 b 557 606 602 647 650 683 b 675 584 679 480 669 378 b 663 312 648 245 628 181 b 608 120 584 58 548 4 b 519 -42 477 -83 425 -102 b 373 -121 309 -117 266 -80 b 187 -14 211 100 249 192 z"},"(":{"x_min":0,"x_max":414,"ha":414,"o":"m 195 685 b 210 729 265 874 333 835 b 345 827 374 850 360 859 b 286 906 218 841 178 781 b 131 711 103 629 84 547 b 65 457 53 364 50 272 b 48 181 55 83 89 -3 b 123 -91 198 -158 295 -155 b 315 -154 338 -140 345 -122 b 351 -106 343 -89 324 -87 b 171 -78 145 120 139 238 b 135 319 141 400 151 480 b 160 549 173 619 195 685 z"},"C":{"x_min":0,"x_max":664,"ha":664,"o":"m 518 -160 b 592 -58 646 59 683 179 b 688 197 655 191 651 177 b 623 86 584 -1 535 -82 b 493 -152 433 -255 341 -259 b 260 -263 209 -181 183 -114 b 149 -29 137 62 138 154 b 140 338 184 523 265 689 b 301 761 343 835 406 888 b 435 912 471 937 511 928 b 549 920 566 881 571 846 b 581 780 557 709 513 657 b 482 656 451 653 420 648 b 386 644 320 631 331 582 b 341 537 419 558 446 569 b 479 583 509 605 535 632 b 552 632 570 632 588 632 b 596 632 606 635 610 643 b 613 649 611 657 602 658 b 587 658 572 658 557 658 b 559 660 560 662 562 664 b 612 733 650 846 605 926 b 545 1033 407 972 337 911 b 253 838 197 737 154 636 b 110 532 79 422 63 310 b 47 197 42 79 69 -33 b 93 -128 138 -237 235 -279 b 347 -328 455 -248 518 -160 z m 460 610 b 439 596 411 584 384 586 b 370 588 358 602 374 613 b 383 620 402 620 412 622 b 437 625 462 628 487 630 b 479 622 470 616 460 610 z"},"W":{"x_min":0,"x_max":1289,"ha":1289,"o":"m 1330 774 b 1366 836 1409 893 1461 941 b 1495 972 1614 1077 1648 1003 b 1655 988 1689 1004 1682 1019 b 1655 1079 1580 1054 1538 1029 b 1487 999 1441 962 1400 918 b 1312 824 1253 708 1213 587 b 1165 446 1142 299 1111 154 b 1096 82 1080 8 1056 -62 b 1051 -79 1046 -96 1037 -111 b 1029 -125 1023 -135 1009 -123 b 985 -104 972 -66 962 -38 b 935 40 917 122 901 203 b 884 286 872 371 846 451 b 838 477 793 452 790 432 b 757 350 735 265 712 180 b 701 137 690 94 677 52 b 666 15 656 -26 634 -58 b 626 -70 616 -82 602 -85 b 583 -88 570 -71 559 -58 b 533 -27 520 12 509 50 b 485 135 481 225 483 313 b 484 404 491 496 486 587 b 483 667 475 767 414 825 b 294 940 126 804 75 686 b 45 618 30 518 103 471 b 170 427 262 441 323 490 b 341 506 319 520 303 507 b 248 462 144 455 101 523 b 63 584 97 676 133 730 b 153 759 177 785 206 804 b 237 826 283 850 322 835 b 394 806 400 696 402 631 b 410 459 375 285 399 113 b 409 39 434 -49 494 -99 b 548 -144 623 -130 663 -75 b 684 -45 695 -7 706 28 b 720 72 732 118 743 163 b 759 224 774 286 793 346 b 797 297 804 249 812 201 b 825 126 841 51 861 -22 b 878 -80 902 -169 974 -180 b 1004 -185 1034 -170 1055 -148 b 1077 -126 1085 -96 1094 -67 b 1136 78 1160 227 1192 374 b 1221 512 1259 651 1330 774 z"},"A":{"x_min":0,"x_max":1104,"ha":1104,"o":"m 540 -68 b 580 0 607 75 628 152 b 636 152 643 152 650 152 b 726 152 807 134 877 98 b 886 -1 900 -101 934 -193 b 946 -222 959 -250 976 -276 b 989 -297 1017 -294 1036 -285 b 1047 -279 1065 -265 1069 -250 b 1072 -248 1074 -246 1075 -244 b 1106 -171 1098 -89 1059 -21 b 1038 16 1009 47 977 73 b 974 90 973 106 971 123 b 955 258 949 395 942 531 b 941 562 939 593 937 624 b 963 652 989 679 1016 706 b 1052 743 1090 779 1132 810 b 1152 825 1173 840 1194 852 b 1210 861 1270 897 1266 855 b 1265 838 1300 849 1301 865 b 1305 908 1251 906 1224 895 b 1182 877 1143 850 1107 823 b 1044 775 988 718 934 660 b 932 685 930 710 928 734 b 924 767 921 799 913 831 b 907 855 900 891 872 899 b 845 906 821 885 808 865 b 791 841 777 816 765 790 b 740 734 721 675 704 616 b 676 516 656 414 633 312 b 603 278 573 244 542 210 b 524 191 506 172 488 153 b 477 150 466 146 455 141 b 417 126 381 106 349 82 b 316 57 282 28 274 -13 b 273 -20 277 -24 283 -25 b 324 -35 358 -2 386 22 b 419 50 451 79 481 110 b 489 117 497 125 504 132 b 533 141 563 147 593 150 b 568 59 537 -31 481 -105 b 446 -152 396 -198 334 -201 b 272 -203 216 -165 179 -118 b 107 -30 79 93 85 205 b 91 327 142 475 250 545 b 306 582 385 586 438 539 b 482 498 498 436 513 380 b 517 366 548 380 544 395 b 530 447 515 501 480 543 b 445 585 392 604 339 600 b 221 590 139 487 95 386 b 49 280 38 158 64 46 b 89 -61 149 -184 262 -219 b 383 -257 483 -165 540 -68 z m 1006 -7 b 1050 -64 1073 -141 1055 -211 b 1016 -141 997 -62 984 18 b 992 10 999 2 1006 -7 z m 869 208 b 871 183 872 159 874 134 b 799 167 717 182 636 179 b 646 219 655 258 664 297 b 665 302 666 306 667 311 b 731 385 793 460 857 534 b 859 425 862 316 869 208 z m 764 696 b 775 727 786 759 800 789 b 806 802 813 815 821 827 b 825 834 830 841 835 847 b 836 848 838 850 839 851 b 857 784 852 710 854 640 b 855 618 855 596 856 574 b 796 506 739 436 680 367 b 705 478 728 589 764 696 z m 373 44 b 357 30 335 5 312 1 b 322 30 349 51 373 68 b 395 84 419 98 444 110 b 440 105 435 101 431 97 b 412 79 392 61 373 44 z m 538 167 b 566 196 593 226 620 256 b 618 251 617 245 616 239 b 611 219 606 198 600 177 b 579 175 558 171 538 167 z"},"f":{"x_min":0,"x_max":322,"ha":322,"o":"m 354 162 b 303 179 247 169 197 153 b 161 142 127 126 95 105 b 94 115 92 124 90 134 b 80 199 76 265 74 332 b 74 332 74 333 74 334 b 110 401 142 469 171 538 b 204 616 236 697 250 781 b 258 832 265 926 186 921 b 110 915 59 827 35 763 b 6 684 -8 601 -15 516 b -23 429 -24 341 -18 254 b -12 172 -3 88 27 10 b 52 -55 114 -132 191 -94 b 248 -65 278 8 239 63 b 215 96 180 108 144 104 b 160 112 176 119 192 125 b 235 139 287 152 332 138 b 345 134 372 155 354 162 z m 112 729 b 119 758 128 787 138 815 b 145 836 156 867 176 880 b 204 898 215 853 216 834 b 218 802 212 769 204 737 b 187 666 160 596 131 528 b 113 485 94 443 73 401 b 74 512 85 622 112 729 z m 217 30 b 225 9 225 -15 215 -35 b 200 -64 170 -64 150 -40 b 133 -19 124 11 114 35 b 111 46 107 56 104 67 b 145 91 197 76 217 30 z"},"Q":{"x_min":0,"x_max":725,"ha":725,"o":"m 860 -150 b 889 -146 916 -134 932 -108 b 944 -90 911 -93 903 -104 b 885 -129 836 -126 810 -127 b 771 -129 732 -129 694 -126 b 631 -122 568 -110 508 -89 b 603 28 629 192 639 339 b 644 426 640 515 620 600 b 614 630 606 661 595 691 b 638 723 684 750 733 771 b 757 780 800 800 820 773 b 829 760 861 776 852 789 b 812 843 723 795 679 772 b 646 755 615 735 586 713 b 570 752 548 789 518 818 b 466 870 395 892 325 864 b 258 837 204 778 168 717 b 89 585 74 416 111 269 b 119 241 128 214 139 188 b 112 138 88 87 70 33 b 48 -37 32 -118 92 -173 b 209 -281 385 -217 484 -116 b 525 -130 567 -141 609 -147 b 691 -160 779 -164 860 -150 z m 565 448 b 565 372 559 296 546 221 b 535 154 520 86 491 24 b 478 -6 460 -35 440 -61 b 333 -10 240 72 187 179 b 184 185 181 191 178 198 b 240 309 315 414 400 508 b 444 557 492 606 543 650 b 558 584 565 516 565 448 z m 151 591 b 169 655 198 717 241 767 b 286 818 351 867 422 838 b 489 811 520 741 537 675 b 520 661 503 646 486 631 b 367 521 263 395 179 257 b 174 249 169 241 164 232 b 123 346 120 475 151 591 z m 208 -174 b 142 -169 85 -126 87 -55 b 89 17 123 91 155 155 b 206 60 285 -18 382 -71 b 393 -78 404 -83 415 -89 b 362 -144 291 -181 208 -174 z"},"w":{"x_min":0,"x_max":542,"ha":542,"o":"m 567 165 b 537 160 506 162 477 171 b 483 201 487 230 491 260 b 496 305 506 369 477 409 b 451 443 403 421 379 398 b 349 368 334 325 337 283 b 343 220 385 176 438 153 b 436 140 433 128 429 115 b 420 80 407 41 386 11 b 379 2 377 -3 366 3 b 360 7 355 14 350 19 b 339 32 331 48 325 64 b 292 145 287 235 281 321 b 278 366 193 336 195 297 b 195 290 195 283 196 276 b 194 225 193 174 183 124 b 177 98 148 -20 105 19 b 69 51 67 111 63 156 b 57 214 59 273 63 331 b 66 371 -15 348 -19 316 b -29 243 -27 167 -11 95 b 2 37 33 -30 103 -23 b 168 -18 196 42 211 97 b 213 105 215 112 217 120 b 228 76 246 35 275 2 b 306 -35 356 -50 396 -18 b 431 8 448 59 460 99 b 464 113 468 128 471 142 b 500 135 531 134 560 139 b 567 140 578 144 580 153 b 581 161 575 166 567 165 z m 452 232 b 450 217 448 201 445 185 b 419 201 397 223 383 253 b 370 285 369 322 383 354 b 389 368 399 383 412 391 b 439 410 452 381 456 359 b 465 318 458 273 452 232 z"},"-":{"x_min":0,"x_max":409,"ha":409,"o":"m 342 325 b 299 331 251 325 207 321 b 162 317 113 314 71 298 b 59 294 36 268 62 265 b 104 261 147 268 189 271 b 233 273 279 271 322 277 b 336 279 352 287 357 301 b 362 313 356 323 342 325 z"},"E":{"x_min":0,"x_max":864,"ha":864,"o":"m 755 142 b 787 202 804 291 741 338 b 678 387 576 350 515 315 b 480 295 447 269 421 239 b 397 211 367 173 385 136 b 392 122 423 137 417 151 b 401 184 436 219 457 241 b 480 264 506 284 535 299 b 585 326 672 357 720 311 b 773 261 745 181 713 128 b 678 72 630 26 577 -12 b 479 -83 342 -155 217 -127 b 155 -113 116 -68 112 -4 b 107 63 134 128 169 184 b 208 246 257 303 311 352 b 317 357 323 362 329 367 b 338 368 348 370 358 372 b 398 379 437 396 472 418 b 503 439 540 468 540 509 b 540 525 520 532 507 530 b 439 522 376 481 322 436 b 293 437 265 446 243 465 b 173 529 200 636 245 705 b 289 773 367 829 449 840 b 492 846 543 831 560 787 b 567 770 566 753 562 736 b 546 733 530 728 515 723 b 489 713 350 645 411 607 b 435 592 473 602 496 612 b 526 625 552 646 572 670 b 581 680 589 691 595 702 b 614 704 633 703 645 688 b 660 670 706 698 689 720 b 671 742 640 744 613 743 b 622 775 620 809 597 838 b 553 893 476 894 414 876 b 353 860 297 827 250 785 b 204 743 168 691 144 634 b 119 571 106 493 147 434 b 172 398 209 378 249 370 b 203 325 161 275 126 221 b 82 154 48 75 50 -7 b 52 -83 96 -145 170 -166 b 243 -186 323 -172 393 -147 b 470 -120 541 -78 605 -28 b 665 18 720 74 755 142 z m 514 667 b 505 660 496 653 486 648 b 480 645 459 636 452 642 b 448 645 470 658 474 661 b 484 668 494 673 505 678 b 515 683 526 688 537 691 b 530 682 522 674 514 667 z m 456 486 b 456 490 458 489 456 486 z"},"s":{"x_min":0,"x_max":240,"ha":240,"o":"m 260 169 b 218 157 179 136 147 107 b 137 117 126 128 116 139 b 92 166 72 196 58 229 b 44 264 38 304 56 339 b 64 356 78 373 97 378 b 118 384 142 370 147 349 b 152 330 187 343 184 359 b 172 422 95 419 53 389 b 1 353 -34 286 -30 222 b -24 151 31 94 81 49 b 85 45 90 41 94 37 b 84 15 78 -8 82 -31 b 88 -61 112 -78 142 -79 b 169 -80 199 -67 216 -44 b 240 -14 216 26 197 52 b 187 65 176 76 165 88 b 165 88 165 88 165 88 b 192 115 225 134 262 144 b 280 150 283 176 260 169 z m 169 -49 b 167 -52 154 -52 151 -51 b 129 -50 117 -32 116 -12 b 115 -3 116 6 119 15 b 133 2 147 -11 158 -27 b 160 -30 171 -45 169 -49 z"},">":{"x_min":0,"x_max":359,"ha":359,"o":"m 307 329 b 302 346 283 360 270 371 b 255 384 238 396 220 406 b 183 429 141 447 99 460 b 87 463 74 460 65 451 b 59 446 50 432 60 425 b 92 405 126 389 158 369 b 174 359 190 348 204 336 b 211 330 223 321 231 312 b 224 309 217 307 210 304 b 194 297 178 290 162 283 b 129 268 96 250 68 227 b 55 216 41 196 57 181 b 72 166 99 177 114 186 b 149 210 185 231 224 249 b 254 263 321 284 307 329 z"},"l":{"x_min":0,"x_max":276,"ha":276,"o":"m 277 153 b 266 94 254 33 224 -19 b 211 -41 186 -79 158 -56 b 136 -37 127 -12 118 15 b 84 118 74 226 72 333 b 141 459 203 594 238 732 b 250 780 276 870 230 909 b 175 955 103 885 73 842 b 31 783 11 704 -1 633 b -15 556 -21 477 -23 399 b -24 320 -20 241 -10 163 b -1 92 14 15 58 -43 b 80 -74 107 -96 147 -96 b 180 -96 208 -83 230 -58 b 280 0 296 82 309 155 b 313 174 280 167 277 153 z m 121 767 b 128 789 160 903 197 878 b 216 865 215 834 214 814 b 213 780 206 746 197 713 b 167 606 123 501 72 401 b 73 524 86 649 121 767 z"},"8":{"x_min":0,"x_max":421,"ha":421,"o":"m 302 265 b 314 336 327 408 328 480 b 328 542 323 620 287 673 b 250 727 187 724 137 688 b 84 650 56 585 51 522 b 44 433 85 357 135 286 b 85 188 69 71 99 -34 b 116 -94 160 -140 225 -140 b 281 -141 334 -102 355 -51 b 401 55 343 159 281 250 b 290 251 300 257 302 265 z m 274 -101 b 245 -117 209 -112 183 -95 b 121 -54 117 47 120 113 b 123 164 135 213 155 259 b 178 227 202 196 224 166 b 263 111 298 49 309 -19 b 314 -52 305 -84 274 -101 z m 266 271 b 253 291 239 310 227 329 b 191 383 156 442 145 507 b 137 559 134 634 182 670 b 216 695 247 662 261 633 b 278 597 285 556 288 517 b 294 434 281 352 266 271 z"},"\\":{"x_min":0,"x_max":517,"ha":517,"o":"m 466 -146 b 445 -61 414 23 385 106 b 358 187 329 267 299 347 b 239 510 177 672 105 830 b 93 855 43 829 51 803 b 102 638 159 474 213 310 b 241 229 268 148 295 67 b 322 -15 346 -99 379 -180 b 393 -216 475 -181 466 -146 z"},"e":{"x_min":0,"x_max":235,"ha":235,"o":"m 235 147 b 226 116 214 88 197 60 b 184 38 162 -2 134 -7 b 110 -11 90 21 81 40 b 69 67 66 96 65 124 b 63 175 71 225 89 272 b 106 274 123 281 139 292 b 162 308 187 339 169 367 b 154 392 117 395 92 384 b 57 369 32 335 15 302 b -19 233 -36 146 -20 71 b -5 2 49 -64 127 -38 b 204 -13 247 76 269 149 b 274 168 239 161 235 147 z m 115 329 b 118 335 121 342 125 347 b 126 346 130 347 133 343 b 142 332 130 317 122 311 b 116 306 109 302 101 300 b 105 310 110 320 115 329 z"},"b":{"x_min":0,"x_max":464,"ha":464,"o":"m 466 150 b 437 104 400 67 354 38 b 356 47 358 56 359 64 b 371 133 372 203 352 270 b 343 300 327 325 306 346 b 287 364 268 379 240 372 b 210 365 190 340 174 316 b 154 287 139 255 126 222 b 112 185 99 147 87 109 b 85 124 84 140 82 155 b 82 164 81 174 80 183 b 120 285 159 387 193 491 b 213 553 232 615 244 680 b 254 737 262 802 248 859 b 236 907 193 933 146 911 b 91 886 60 824 40 770 b -5 651 -19 521 -21 394 b -22 322 -19 251 -12 179 b -9 144 -5 108 1 73 b 7 37 12 -3 30 -35 b 41 -57 82 -39 86 -19 b 88 -9 89 2 90 13 b 106 64 123 116 140 167 b 157 218 175 268 205 312 b 213 322 222 338 234 343 b 250 350 264 339 271 325 b 284 302 286 272 288 246 b 294 188 291 131 280 74 b 275 48 270 22 262 -4 b 233 -14 202 -22 171 -29 b 121 -40 52 -53 34 -110 b 15 -168 74 -210 127 -213 b 252 -218 316 -106 346 2 b 409 36 465 83 498 146 b 509 167 475 163 466 150 z m 76 253 b 75 279 74 304 74 329 b 71 444 80 558 98 672 b 106 724 115 778 135 827 b 141 843 152 872 169 881 b 198 896 213 850 216 830 b 227 774 218 712 207 656 b 196 599 179 544 161 488 b 135 409 106 331 76 253 z m 233 -80 b 216 -112 188 -147 148 -147 b 127 -147 106 -142 91 -126 b 84 -117 75 -109 80 -97 b 85 -85 99 -79 110 -75 b 155 -56 205 -52 252 -37 b 246 -52 240 -66 233 -80 z"},"%":{"x_min":0,"x_max":708,"ha":708,"o":"m 595 713 b 605 731 596 749 575 752 b 552 756 529 742 516 723 b 470 657 434 583 400 510 b 366 437 335 363 306 288 b 247 139 194 -13 132 -161 b 125 -177 144 -188 157 -188 b 174 -188 197 -179 204 -162 b 270 -15 327 135 388 284 b 418 356 448 428 482 498 b 517 571 557 641 595 713 z m 184 379 b 240 396 285 443 299 500 b 312 549 302 613 258 643 b 204 678 135 644 102 598 b 82 572 67 537 69 504 b 69 500 70 496 70 492 b 57 484 48 471 50 459 b 56 430 67 402 94 386 b 121 370 154 371 184 379 z m 130 490 b 129 496 125 499 120 502 b 117 532 133 568 149 588 b 163 605 184 618 206 609 b 228 600 238 575 241 553 b 246 515 233 472 203 447 b 191 438 176 432 162 438 b 156 440 151 445 147 450 b 148 453 148 457 144 459 b 143 460 141 461 140 462 b 136 471 133 481 130 490 z m 653 92 b 639 139 598 179 548 183 b 514 187 481 176 456 155 b 456 155 456 155 455 155 b 439 152 414 139 411 120 b 402 60 399 -8 445 -54 b 489 -98 559 -89 604 -52 b 646 -17 668 39 653 92 z m 604 22 b 596 3 582 -17 563 -25 b 544 -33 529 -23 516 -10 b 479 28 489 88 494 135 b 494 139 493 143 491 146 b 513 157 540 158 565 144 b 609 119 623 68 604 22 z"},"m":{"x_min":0,"x_max":534,"ha":534,"o":"m 535 141 b 521 108 505 76 484 47 b 475 34 454 5 434 14 b 421 19 416 43 413 55 b 395 123 401 193 382 261 b 375 289 359 321 332 334 b 306 346 281 331 264 311 b 244 285 229 254 218 221 b 216 247 212 271 205 296 b 192 336 154 359 120 325 b 93 299 79 258 68 221 b 70 262 73 304 73 346 b 73 388 -7 361 -12 330 b -22 268 -22 203 -20 140 b -19 111 -17 82 -12 53 b -6 26 0 -5 27 -17 b 38 -22 55 -15 60 -4 b 71 17 70 42 68 66 b 79 138 92 213 123 279 b 126 287 130 294 135 301 b 137 304 139 306 141 309 b 141 308 141 308 141 307 b 139 299 141 284 141 276 b 141 264 141 252 142 241 b 142 195 141 149 143 104 b 145 63 227 89 224 126 b 224 128 223 131 223 133 b 233 166 244 198 256 230 b 262 247 269 264 277 279 b 281 286 286 298 293 302 b 306 312 306 303 307 292 b 316 221 309 149 318 78 b 323 44 332 12 364 -7 b 390 -22 424 -24 452 -14 b 512 9 545 85 568 140 b 575 157 541 154 535 141 z"},"#":{"x_min":0,"x_max":621,"ha":621,"o":"m 569 417 b 574 427 570 439 557 440 b 514 445 471 447 428 448 b 428 477 427 505 427 533 b 426 603 429 674 421 743 b 418 769 371 754 368 734 b 360 664 362 593 360 523 b 359 498 358 474 357 449 b 342 449 328 449 313 448 b 301 448 289 447 278 447 b 275 546 271 645 266 744 b 264 778 202 754 201 726 b 198 631 195 536 193 440 b 152 436 108 434 69 421 b 52 415 38 389 66 389 b 104 388 144 397 183 401 b 186 401 189 401 192 402 b 191 372 190 342 190 312 b 189 288 189 264 188 240 b 149 236 110 231 71 225 b 64 223 52 219 50 209 b 49 201 56 196 64 197 b 105 202 146 207 188 211 b 185 108 183 4 186 -99 b 186 -124 219 -126 236 -121 b 259 -115 281 -97 282 -72 b 286 24 285 121 283 217 b 305 219 328 219 350 220 b 349 180 348 140 347 101 b 346 29 341 -44 344 -116 b 344 -138 372 -140 388 -136 b 408 -130 427 -114 428 -93 b 433 -24 431 46 431 115 b 431 150 431 185 431 220 b 466 219 501 218 535 215 b 545 214 557 219 561 228 b 565 235 563 244 553 245 b 512 248 471 250 431 250 b 430 276 430 301 430 326 b 430 353 429 380 429 407 b 464 406 499 403 534 400 b 547 399 562 405 569 417 z m 353 309 b 352 290 352 270 351 250 b 328 250 305 249 282 248 b 282 278 281 307 280 337 b 280 361 279 384 279 407 b 285 408 291 408 298 408 b 317 409 337 409 356 409 b 355 376 354 343 353 309 z"},",":{"x_min":0,"x_max":215,"ha":215,"o":"m 114 56 b 94 29 77 0 56 -27 b 49 -37 46 -49 59 -55 b 71 -62 88 -53 97 -45 b 122 -19 148 10 163 43 b 177 75 129 75 114 56 z"},"n":{"x_min":0,"x_max":401,"ha":401,"o":"m 402 144 b 385 108 367 65 332 43 b 316 32 298 28 287 46 b 278 60 275 81 271 97 b 254 172 277 264 232 331 b 185 403 121 299 103 258 b 87 224 76 189 66 154 b 65 164 65 175 65 185 b 65 248 74 310 77 373 b 79 415 -1 388 -6 358 b -19 294 -24 226 -21 161 b -20 131 -18 101 -12 71 b -5 40 2 8 26 -14 b 40 -26 72 -13 75 5 b 77 19 77 34 76 48 b 89 123 107 199 141 268 b 150 286 159 304 173 318 b 192 337 185 296 185 286 b 184 244 182 201 181 159 b 180 95 193 -15 281 -6 b 361 2 404 72 435 139 b 444 161 409 159 402 144 z"},"h":{"x_min":0,"x_max":432,"ha":432,"o":"m 434 126 b 419 86 405 46 388 8 b 381 -8 374 -25 365 -41 b 360 -50 354 -61 343 -58 b 334 -55 331 -44 328 -35 b 322 -17 322 2 320 22 b 318 41 317 60 316 79 b 316 118 318 158 319 198 b 321 238 319 278 309 317 b 302 345 293 378 260 385 b 232 392 207 363 193 343 b 171 313 157 278 143 244 b 122 192 106 138 88 84 b 87 108 84 132 82 155 b 82 164 81 174 80 183 b 120 285 159 387 193 491 b 213 553 232 615 244 680 b 254 737 262 802 248 859 b 236 907 193 933 146 911 b 91 886 60 824 40 770 b -5 651 -19 521 -21 394 b -22 322 -19 251 -12 179 b -9 144 -5 108 1 73 b 7 37 12 -3 30 -35 b 41 -57 82 -39 86 -19 b 87 -15 87 -10 88 -4 b 89 -3 90 -2 91 0 b 119 73 139 148 166 221 b 180 258 195 296 216 329 b 221 336 228 350 236 353 b 241 356 240 358 244 352 b 245 351 245 341 245 340 b 245 320 244 300 243 279 b 239 197 224 114 229 31 b 231 -6 244 -39 269 -67 b 291 -91 324 -100 354 -86 b 390 -70 404 -30 419 4 b 437 44 452 86 467 128 b 473 146 439 140 434 126 z m 76 253 b 75 279 74 304 74 329 b 71 444 80 558 98 672 b 106 724 115 778 135 827 b 141 843 152 872 169 881 b 198 896 213 850 216 830 b 227 774 218 712 207 656 b 196 599 179 544 161 488 b 135 409 106 331 76 253 z"},"z":{"x_min":0,"x_max":400,"ha":400,"o":"m 424 166 b 385 165 347 140 314 115 b 307 125 300 134 292 143 b 273 164 248 181 221 191 b 208 195 194 198 179 199 b 175 200 170 199 165 199 b 179 220 192 242 204 264 b 217 290 237 323 234 353 b 232 379 215 388 190 386 b 148 382 107 375 65 369 b 49 367 35 340 58 343 b 88 347 119 351 150 355 b 158 356 182 364 189 360 b 205 351 181 331 175 323 b 140 278 109 228 75 181 b 65 168 57 147 78 139 b 101 130 121 135 145 134 b 162 133 180 126 195 116 b 217 102 233 81 245 59 b 218 35 193 9 170 -18 b 135 -59 103 -102 78 -150 b 55 -194 34 -248 42 -298 b 49 -344 85 -373 131 -375 b 180 -376 223 -349 256 -315 b 331 -236 368 -127 357 -18 b 354 20 344 58 326 93 b 331 96 335 99 339 102 b 362 118 388 139 417 140 b 434 140 447 167 424 166 z m 252 -232 b 237 -269 218 -311 183 -333 b 146 -358 94 -345 79 -301 b 64 -258 82 -207 101 -168 b 121 -126 147 -87 176 -51 b 200 -20 227 9 256 35 b 259 28 261 21 264 14 b 289 -66 282 -154 252 -232 z"},"B":{"x_min":0,"x_max":859,"ha":859,"o":"m 777 691 b 846 759 939 852 1044 845 b 1054 845 1066 849 1070 858 b 1074 865 1072 875 1062 875 b 958 882 872 816 798 751 b 722 682 655 604 595 520 b 575 492 556 463 537 433 b 498 453 454 469 410 474 b 469 531 520 599 556 672 b 584 727 610 788 615 849 b 619 897 602 974 545 982 b 489 989 438 942 403 904 b 361 860 328 807 301 752 b 241 631 202 501 178 369 b 170 323 164 276 159 228 b 156 270 152 312 150 354 b 141 512 144 669 150 827 b 152 869 67 845 64 812 b 46 652 46 489 59 329 b 65 250 74 172 87 94 b 100 15 113 -65 145 -139 b 154 -162 196 -140 196 -120 b 195 -84 192 -49 188 -14 b 182 207 208 431 287 638 b 327 743 378 854 467 926 b 485 941 513 961 538 949 b 569 934 567 888 563 860 b 554 804 532 752 504 702 b 447 598 367 509 268 443 b 254 433 240 412 253 396 b 265 381 292 383 307 392 b 339 410 379 403 414 393 b 441 384 468 373 493 358 b 418 226 361 83 333 -66 b 323 -120 316 -174 317 -229 b 317 -280 321 -340 350 -383 b 408 -468 530 -434 596 -380 b 750 -255 820 -30 764 160 b 736 254 674 341 594 398 b 585 405 576 411 566 417 b 573 428 580 439 587 450 b 642 537 705 618 777 691 z m 657 171 b 726 17 688 -163 590 -295 b 550 -349 472 -419 404 -361 b 368 -330 364 -269 362 -225 b 359 -176 364 -126 371 -78 b 394 69 450 209 521 339 b 581 296 628 238 657 171 z"},"K":{"x_min":0,"x_max":941,"ha":941,"o":"m 56 51 b 90 38 125 50 156 66 b 178 76 198 89 218 103 b 257 108 298 105 337 97 b 340 84 342 71 345 58 b 353 20 362 -19 374 -55 b 383 -83 395 -115 429 -112 b 440 -112 451 -104 452 -93 b 453 -80 446 -66 445 -53 b 443 -35 441 -17 439 0 b 435 27 431 54 427 81 b 519 41 618 11 720 18 b 812 24 903 61 966 130 b 982 147 952 153 940 140 b 808 -7 590 40 432 113 b 429 114 426 114 422 113 b 422 113 422 114 422 114 b 414 172 407 231 401 289 b 405 294 409 299 413 303 b 515 431 605 568 710 693 b 739 728 770 763 803 795 b 818 810 834 825 852 838 b 864 846 920 882 918 847 b 917 830 950 842 951 856 b 954 892 911 893 887 884 b 851 871 820 847 793 821 b 731 765 677 698 625 632 b 548 533 476 429 398 330 b 398 332 398 333 398 334 b 386 484 388 633 392 783 b 393 806 360 808 345 804 b 322 798 304 781 301 758 b 286 602 292 443 309 288 b 311 269 313 251 316 232 b 315 231 314 230 313 230 b 283 196 251 162 215 134 b 213 133 211 131 209 130 b 156 122 105 103 58 74 b 51 69 45 56 56 51 z m 321 196 b 324 174 327 152 331 130 b 307 134 282 136 257 135 b 280 154 300 174 321 196 z"},"R":{"x_min":0,"x_max":712,"ha":712,"o":"m 796 -319 b 917 -321 1002 -228 1072 -141 b 1090 -118 1054 -111 1040 -127 b 1003 -169 965 -214 916 -242 b 863 -272 806 -278 747 -259 b 686 -238 634 -197 585 -154 b 535 -109 486 -62 442 -10 b 388 54 339 131 272 182 b 272 185 273 189 274 192 b 366 242 452 304 529 374 b 615 452 703 546 750 654 b 771 703 786 763 766 815 b 747 864 689 869 645 856 b 539 826 465 728 412 637 b 340 517 286 385 251 249 b 234 240 217 231 200 222 b 199 240 199 258 199 276 b 196 432 209 587 213 742 b 213 765 181 767 166 763 b 144 757 125 740 123 717 b 108 556 103 392 110 231 b 107 230 103 229 100 228 b 74 219 47 192 50 162 b 54 129 83 123 117 128 b 122 75 129 22 139 -31 b 147 -71 157 -111 170 -149 b 175 -164 180 -186 193 -196 b 206 -205 226 -200 237 -191 b 243 -186 250 -177 246 -170 b 246 -170 246 -168 245 -165 b 244 -164 243 -162 243 -161 b 241 -61 247 38 263 136 b 303 100 334 57 367 15 b 404 -31 443 -76 483 -121 b 565 -212 663 -317 796 -319 z m 552 771 b 586 803 642 842 691 832 b 757 818 731 738 715 696 b 678 595 592 510 514 438 b 447 375 372 319 293 272 b 314 351 341 429 376 503 b 420 598 473 700 552 771 z m 219 164 b 220 165 222 165 223 166 b 226 164 229 162 232 161 b 224 120 218 79 214 37 b 214 40 214 42 213 45 b 209 82 206 119 203 157 b 210 160 215 162 219 164 z"},"T":{"x_min":0,"x_max":924,"ha":924,"o":"m 565 228 b 567 228 569 228 571 229 b 574 183 576 138 580 93 b 586 27 588 -56 632 -109 b 646 -125 681 -110 690 -90 b 690 -90 691 -90 691 -90 b 741 -27 779 52 783 133 b 784 172 772 210 738 232 b 715 247 689 253 662 256 b 661 291 660 325 660 359 b 659 509 665 658 673 808 b 674 832 639 834 623 829 b 600 823 580 806 578 781 b 565 628 564 474 568 320 b 569 299 569 277 570 256 b 506 250 443 234 382 216 b 337 203 293 189 248 177 b 207 166 162 150 119 150 b 32 150 144 350 163 381 b 207 454 257 522 313 585 b 425 712 561 821 713 898 b 803 944 906 980 1009 973 b 1058 969 1107 953 1139 915 b 1175 871 1168 814 1147 765 b 1137 743 1173 745 1180 761 b 1198 801 1210 846 1196 890 b 1185 926 1158 955 1125 974 b 1047 1018 944 1006 861 984 b 687 939 528 828 396 709 b 331 649 271 584 218 514 b 164 444 113 369 79 288 b 63 251 44 204 52 163 b 59 122 97 119 132 124 b 226 138 315 170 406 196 b 458 211 511 224 565 228 z m 713 206 b 759 173 749 110 736 62 b 725 21 707 -18 683 -54 b 676 -29 675 -3 672 22 b 669 59 667 97 666 134 b 665 165 664 196 663 227 b 681 223 698 217 713 206 z"},"P":{"x_min":0,"x_max":775,"ha":775,"o":"m 1072 792 b 1077 787 1087 765 1077 760 b 1057 750 1067 728 1088 737 b 1135 760 1115 822 1068 828 b 1039 831 1010 819 983 809 b 951 796 920 781 890 763 b 857 745 826 724 795 701 b 789 759 770 819 727 860 b 685 902 622 916 564 909 b 498 901 437 870 382 835 b 331 803 284 764 242 720 b 159 633 96 524 65 407 b 50 350 42 287 61 231 b 81 172 130 137 188 122 b 252 105 319 116 384 109 b 390 68 398 27 408 -14 b 416 -45 424 -77 437 -107 b 446 -130 462 -155 490 -156 b 498 -156 510 -152 515 -145 b 518 -144 520 -141 522 -139 b 556 -58 565 54 493 107 b 512 113 531 121 546 131 b 602 168 647 224 682 281 b 753 395 803 534 797 671 b 839 703 883 733 930 757 b 959 772 989 787 1020 796 b 1036 801 1058 805 1072 792 z m 112 213 b 54 304 101 436 143 524 b 189 620 256 706 340 773 b 423 839 547 916 655 868 b 714 842 734 786 739 726 b 740 703 740 680 739 657 b 680 609 626 555 573 501 b 528 456 486 407 448 356 b 447 445 450 535 457 625 b 459 647 425 649 411 645 b 390 639 372 623 370 601 b 358 465 359 328 374 192 b 374 181 375 170 378 159 b 378 152 379 145 380 138 b 283 143 169 124 112 213 z m 514 -35 b 514 -58 510 -80 503 -102 b 503 -101 503 -100 503 -99 b 499 -86 496 -72 493 -59 b 486 -28 481 4 476 35 b 474 50 472 66 470 81 b 476 76 483 70 488 63 b 509 36 515 -2 514 -35 z m 553 219 b 531 196 490 154 459 172 b 458 191 456 211 454 230 b 453 252 452 274 451 295 b 458 311 468 326 476 339 b 515 398 562 450 611 501 b 651 542 692 582 735 619 b 732 592 727 565 720 538 b 690 424 635 305 553 219 z"},"|":{"x_min":0,"x_max":209,"ha":209,"o":"m 158 384 b 158 469 156 554 153 640 b 152 683 150 726 147 769 b 143 810 142 853 128 892 b 119 914 80 893 76 877 b 66 835 67 790 66 747 b 65 703 65 659 65 615 b 65 529 64 444 63 358 b 62 272 60 186 58 101 b 56 14 49 -73 50 -160 b 50 -185 84 -187 101 -182 b 125 -175 145 -158 148 -133 b 156 -46 155 42 157 128 b 159 214 159 299 158 384 z"},"t":{"x_min":0,"x_max":195,"ha":195,"o":"m 198 147 b 191 118 181 89 167 61 b 161 49 154 37 146 26 b 142 21 137 12 131 9 b 124 5 126 5 121 9 b 114 16 111 32 108 41 b 104 55 100 70 97 84 b 92 113 90 142 87 171 b 81 258 87 344 90 431 b 103 432 116 433 129 434 b 147 434 161 463 136 462 b 121 461 106 461 91 460 b 92 490 93 521 92 551 b 92 573 62 576 47 571 b 25 565 7 549 5 527 b 3 502 1 477 -1 451 b -15 449 -29 447 -42 443 b -56 440 -66 417 -45 418 b -31 419 -17 420 -3 422 b -5 378 -7 333 -7 289 b -8 215 -6 137 16 65 b 25 35 38 3 65 -14 b 89 -29 118 -29 141 -15 b 167 0 183 29 196 54 b 211 84 223 117 230 150 b 234 169 201 162 198 147 z"},"M":{"x_min":0,"x_max":1091,"ha":1091,"o":"m 1340 -275 b 1315 -331 1263 -375 1199 -374 b 1135 -373 1081 -333 1051 -278 b 1015 -213 1002 -135 992 -63 b 982 15 982 94 986 173 b 994 333 1027 493 1027 653 b 1027 701 1018 807 946 783 b 887 765 841 711 806 663 b 736 568 685 461 639 352 b 643 387 647 421 652 455 b 663 532 677 609 688 686 b 694 738 714 839 656 869 b 603 897 526 856 481 830 b 465 821 450 812 436 802 b 434 824 403 826 386 822 b 364 815 343 798 342 774 b 341 758 340 741 339 725 b 279 670 225 608 176 544 b 123 474 -39 265 114 214 b 193 188 277 200 358 191 b 359 185 360 178 361 172 b 366 140 373 108 381 76 b 390 44 396 5 420 -19 b 434 -32 462 -19 473 -4 b 487 5 492 22 497 41 b 504 72 509 105 501 136 b 493 166 475 185 452 197 b 452 197 452 197 452 197 b 443 264 437 331 435 399 b 430 521 434 644 435 767 b 476 797 521 824 570 839 b 600 849 642 852 645 810 b 648 775 639 736 632 702 b 616 619 595 537 580 453 b 565 367 553 280 546 192 b 544 172 575 170 588 174 b 607 179 624 194 626 215 b 627 226 628 238 629 250 b 681 380 735 509 813 625 b 832 654 852 682 875 706 b 890 721 956 784 969 746 b 974 731 972 712 971 697 b 970 676 968 655 964 634 b 958 593 951 552 945 511 b 920 351 892 190 895 28 b 896 -51 905 -130 925 -206 b 943 -271 970 -339 1028 -379 b 1149 -462 1323 -413 1379 -276 b 1387 -256 1347 -261 1340 -275 z m 140 242 b 57 270 97 359 127 413 b 161 476 205 533 251 587 b 278 620 307 652 337 682 b 333 578 333 472 339 368 b 342 319 346 270 353 221 b 283 227 207 219 140 242 z m 464 134 b 472 115 473 95 471 75 b 469 83 467 92 466 100 b 464 114 461 129 459 143 b 461 140 462 137 464 134 z"},"g":{"x_min":0,"x_max":419,"ha":419,"o":"m 446 169 b 437 171 428 164 422 157 b 403 131 376 112 349 95 b 343 90 336 86 329 81 b 327 183 323 285 321 387 b 321 410 291 412 274 407 b 255 402 238 389 233 369 b 212 389 186 396 156 395 b 74 391 15 311 -9 240 b -34 171 -40 72 6 10 b 29 -21 67 -33 103 -21 b 138 -8 163 19 180 51 b 201 92 214 137 226 181 b 227 185 228 188 229 192 b 231 133 234 74 236 15 b 194 -17 153 -52 117 -90 b 39 -175 -40 -301 -21 -422 b -13 -473 18 -522 69 -539 b 122 -557 183 -534 222 -496 b 270 -450 289 -383 303 -320 b 318 -249 326 -177 329 -105 b 330 -53 331 -1 330 50 b 375 80 422 108 454 153 b 459 160 453 167 446 169 z m 165 91 b 156 69 129 -3 96 19 b 65 40 60 87 58 120 b 53 190 69 262 113 317 b 132 340 163 367 193 346 b 211 334 220 316 226 295 b 208 227 191 157 165 91 z m 207 -409 b 195 -455 165 -523 107 -515 b 52 -508 19 -451 14 -401 b 3 -287 76 -173 152 -94 b 178 -66 207 -41 237 -17 b 241 -149 240 -280 207 -409 z"},"j":{"x_min":0,"x_max":178,"ha":178,"o":"m 205 169 b 196 171 186 164 181 157 b 162 131 135 112 108 95 b 101 90 95 86 88 81 b 86 183 81 285 80 387 b 80 410 49 412 33 407 b 12 402 -8 385 -10 362 b -17 247 -10 131 -5 15 b -48 -17 -88 -52 -124 -90 b -203 -175 -281 -301 -262 -422 b -254 -473 -223 -522 -172 -539 b -119 -557 -58 -534 -19 -496 b 29 -450 48 -383 61 -320 b 77 -249 85 -177 87 -105 b 89 -53 89 -1 89 50 b 134 80 181 108 212 153 b 217 160 212 167 205 169 z m -34 -409 b -46 -455 -76 -523 -134 -515 b -190 -508 -222 -451 -227 -401 b -238 -287 -165 -173 -89 -94 b -63 -66 -34 -41 -4 -17 b 0 -149 -2 -280 -34 -409 z m 19 441 b 20 440 21 439 22 438 b 22 438 22 437 23 437 b 30 429 46 436 51 445 b 53 447 54 449 55 452 b 60 475 66 499 74 522 b 81 543 91 563 93 585 b 95 603 74 599 65 593 b 51 584 41 569 34 551 b 31 558 28 565 24 570 b 13 586 -8 584 -20 571 b -35 553 -24 527 -18 508 b -9 483 2 460 19 441 z"},"i":{"x_min":0,"x_max":179,"ha":179,"o":"m 180 145 b 163 103 147 59 121 22 b 116 15 107 1 99 -3 b 93 -5 92 -6 88 0 b 85 3 84 8 83 12 b 77 33 75 56 73 78 b 64 172 71 266 69 360 b 68 383 39 385 23 381 b 2 375 -17 359 -19 336 b -22 273 -22 209 -18 146 b -14 95 -7 27 29 -13 b 64 -50 110 -36 138 0 b 173 43 192 97 212 148 b 219 165 185 158 180 145 z m 5 438 b 5 438 6 437 6 437 b 13 429 29 436 34 445 b 36 447 37 449 38 452 b 43 475 50 499 57 522 b 64 543 74 563 77 585 b 79 603 58 599 48 593 b 34 584 24 569 17 551 b 14 558 11 565 7 570 b -3 586 -24 584 -36 571 b -51 553 -41 527 -34 508 b -26 483 -15 460 3 441 b 3 440 4 439 5 438 z"},"y":{"x_min":0,"x_max":415,"ha":415,"o":"m 442 169 b 433 171 423 164 418 157 b 399 131 372 112 345 95 b 338 90 332 86 325 81 b 323 183 318 285 317 387 b 317 410 286 412 270 407 b 249 402 229 385 227 362 b 227 361 227 360 227 359 b 215 300 208 241 196 182 b 190 152 182 122 171 93 b 162 67 148 33 124 17 b 97 -2 85 44 80 64 b 73 96 68 128 65 160 b 60 223 64 285 66 348 b 67 370 36 372 21 367 b 0 362 -19 346 -21 324 b -25 247 -27 166 -7 91 b 1 59 12 20 38 -3 b 60 -22 92 -25 119 -15 b 180 6 205 82 220 138 b 222 146 224 154 226 161 b 227 113 230 64 232 15 b 189 -17 149 -51 113 -90 b 34 -175 -44 -301 -25 -422 b -17 -473 14 -522 65 -539 b 118 -557 179 -534 218 -496 b 266 -450 285 -383 298 -320 b 314 -249 322 -177 324 -105 b 326 -53 326 -1 326 50 b 371 80 418 108 449 153 b 454 160 449 167 442 169 z m 203 -409 b 191 -455 161 -523 103 -515 b 47 -508 15 -451 10 -401 b -1 -287 72 -173 148 -94 b 174 -66 203 -41 233 -17 b 237 -149 235 -280 203 -409 z"},"@":{"x_min":0,"x_max":723,"ha":723,"o":"m 328 501 b 336 516 352 555 373 554 b 407 551 409 501 411 477 b 412 460 443 472 444 486 b 444 516 443 547 425 571 b 407 595 379 600 352 591 b 290 570 254 496 233 439 b 211 379 193 300 212 237 b 234 161 319 171 363 222 b 370 230 376 238 382 246 b 384 208 390 168 407 134 b 430 92 473 74 520 89 b 568 104 598 144 618 188 b 659 278 674 375 673 473 b 672 564 654 661 585 727 b 522 787 430 799 348 777 b 264 755 193 698 142 629 b 38 487 24 292 90 131 b 127 40 194 -45 290 -77 b 388 -109 494 -78 571 -12 b 598 12 566 32 542 14 b 484 -31 408 -58 336 -37 b 264 -16 209 39 174 103 b 102 231 90 394 146 530 b 196 649 324 775 464 726 b 534 701 572 633 585 563 b 600 484 598 398 583 319 b 576 276 564 234 545 194 b 539 182 531 158 518 150 b 507 144 497 154 490 163 b 465 199 464 252 463 294 b 463 343 468 391 474 440 b 476 460 462 470 442 469 b 420 467 401 453 393 433 b 371 377 348 320 316 268 b 316 268 307 257 302 250 b 299 253 296 256 295 257 b 283 282 284 314 286 341 b 291 395 304 452 328 501 z"},".":{"x_min":0,"x_max":161,"ha":161,"o":"m 94 50 b 82 50 68 43 62 32 b 53 17 42 -13 57 -28 b 66 -36 83 -29 89 -22 b 97 -14 100 -4 104 6 b 106 14 109 22 111 31 b 113 42 105 49 94 50 z"},"p":{"x_min":0,"x_max":358,"ha":358,"o":"m 372 159 b 345 144 314 142 284 144 b 293 180 296 217 291 253 b 285 291 265 338 223 346 b 180 355 151 316 133 284 b 109 242 95 194 83 148 b 77 125 72 101 68 77 b 69 117 70 156 73 196 b 76 246 84 298 83 349 b 82 392 7 362 0 334 b -13 284 -15 230 -18 179 b -21 127 -22 76 -22 24 b -22 -26 -20 -75 -16 -125 b -15 -151 -12 -176 -8 -201 b -3 -226 1 -253 15 -275 b 27 -292 56 -278 61 -261 b 69 -238 71 -213 71 -187 b 82 -41 92 112 150 249 b 156 265 164 281 174 295 b 185 311 201 330 213 306 b 229 277 224 234 221 203 b 219 185 216 166 212 148 b 175 146 134 134 119 97 b 105 61 122 24 162 20 b 214 14 253 62 271 105 b 272 109 274 113 275 116 b 276 116 277 116 278 116 b 315 115 351 118 383 136 b 403 147 393 170 372 159 z m 180 78 b 182 79 184 79 180 78 z m 195 101 b 191 94 186 88 183 81 b 182 80 180 78 179 78 b 164 72 150 85 158 101 b 165 117 187 119 203 119 b 200 113 198 107 195 101 z"},"X":{"x_min":0,"x_max":714,"ha":714,"o":"m 757 -336 b 888 -381 1034 -342 1124 -236 b 1145 -212 1105 -205 1090 -222 b 1006 -314 870 -334 763 -270 b 651 -205 610 -65 577 52 b 539 186 517 322 486 457 b 483 473 479 488 476 503 b 502 549 530 593 561 636 b 587 672 616 707 646 740 b 661 756 677 772 693 787 b 712 805 736 831 764 826 b 780 823 802 849 780 853 b 742 860 711 838 684 814 b 655 788 628 760 603 731 b 551 673 506 609 466 542 b 455 581 444 620 430 658 b 409 716 379 771 323 802 b 266 833 201 830 152 787 b 102 744 71 680 61 615 b 59 596 91 603 93 618 b 102 678 131 742 181 779 b 242 824 303 775 330 717 b 358 658 371 589 385 525 b 391 494 397 464 404 433 b 344 322 292 206 233 95 b 212 53 189 12 165 -28 b 153 -49 140 -69 127 -89 b 115 -107 98 -130 74 -128 b 59 -126 38 -151 59 -153 b 131 -161 171 -73 201 -22 b 245 52 283 128 321 205 b 351 266 381 328 413 388 b 417 366 421 345 425 323 b 451 190 476 56 523 -72 b 565 -186 637 -295 757 -336 z"},"*":{"x_min":0,"x_max":282,"ha":282,"o":"m 223 669 b 205 670 187 671 169 672 b 185 687 201 701 219 714 b 240 728 216 744 199 732 b 186 723 174 713 162 702 b 163 714 163 725 164 737 b 165 754 129 744 128 730 b 127 721 126 712 125 703 b 116 712 107 722 97 732 b 86 743 56 724 69 711 b 81 697 93 684 105 670 b 92 669 79 667 66 665 b 46 661 43 633 68 638 b 80 640 92 642 105 643 b 93 629 81 615 70 601 b 56 582 84 578 95 590 b 104 601 114 611 123 622 b 124 603 125 584 127 566 b 129 548 159 562 160 575 b 161 586 162 598 162 609 b 169 602 176 596 183 589 b 195 578 227 599 213 612 b 202 622 191 632 180 643 b 189 642 198 642 206 641 b 215 641 226 645 231 653 b 234 660 232 669 223 669 z"},"Y":{"x_min":0,"x_max":1012,"ha":1012,"o":"m 1370 813 b 1389 849 1362 885 1325 893 b 1280 901 1228 879 1188 860 b 1096 815 1013 749 937 680 b 927 671 918 662 908 652 b 893 719 869 783 831 839 b 819 856 787 841 787 822 b 787 821 786 820 786 818 b 765 681 747 534 669 416 b 642 375 580 300 525 339 b 473 376 465 459 457 517 b 448 590 445 664 435 738 b 427 797 416 870 368 911 b 326 947 262 955 211 938 b 154 919 108 874 80 821 b 50 763 38 687 65 626 b 90 570 153 535 212 557 b 219 560 229 566 228 574 b 227 582 217 585 210 582 b 147 559 97 621 88 678 b 78 741 100 809 141 858 b 177 901 246 941 301 905 b 354 871 354 798 359 742 b 366 673 364 604 370 535 b 374 472 379 395 411 339 b 444 282 507 258 570 279 b 583 283 596 289 607 296 b 582 260 558 223 536 186 b 482 96 427 -3 413 -108 b 407 -147 409 -193 434 -226 b 460 -261 505 -275 547 -272 b 643 -265 727 -179 776 -103 b 829 -20 863 75 887 170 b 915 282 931 399 925 515 b 924 550 920 586 914 622 b 966 673 1021 721 1081 764 b 1124 795 1168 824 1217 845 b 1241 856 1270 867 1297 866 b 1320 865 1352 844 1338 817 b 1328 796 1363 798 1370 813 z m 812 727 b 823 679 833 631 839 582 b 807 549 776 514 747 478 b 780 557 799 642 812 727 z m 832 286 b 817 199 794 112 763 29 b 736 -45 700 -120 641 -175 b 613 -202 577 -227 538 -232 b 493 -236 458 -205 449 -162 b 441 -120 451 -75 463 -34 b 477 11 497 55 519 97 b 605 261 718 411 842 547 b 850 460 846 372 832 286 z"},"c":{"x_min":0,"x_max":260,"ha":260,"o":"m 264 136 b 250 104 231 72 206 46 b 186 25 153 -3 122 11 b 97 23 86 56 78 79 b 68 113 63 148 64 183 b 64 245 82 311 116 363 b 121 370 127 382 136 383 b 153 384 164 360 168 348 b 180 310 166 268 160 231 b 157 211 191 219 193 234 b 202 286 233 395 160 419 b 128 430 91 414 67 394 b 35 369 13 334 -2 297 b -29 228 -34 145 -13 73 b -3 40 14 6 43 -14 b 75 -35 112 -31 145 -20 b 220 6 266 68 296 139 b 303 156 269 150 264 136 z"},"!":{"x_min":0,"x_max":196,"ha":196,"o":"m 145 743 b 145 766 115 768 98 764 b 77 758 57 741 56 718 b 48 593 50 468 51 343 b 52 282 52 221 55 161 b 57 99 56 35 72 -24 b 79 -50 127 -25 130 -8 b 142 53 139 118 141 180 b 142 243 141 306 142 368 b 144 493 148 618 145 743 z m 126 -86 b 123 -77 110 -77 102 -79 b 93 -82 84 -89 81 -98 b 75 -113 77 -131 78 -146 b 81 -174 133 -155 132 -131 b 131 -117 132 -99 126 -86 z"},"/":{"x_min":0,"x_max":626,"ha":626,"o":"m 554 750 b 533 753 511 741 500 724 b 410 584 341 431 268 282 b 230 205 191 128 154 50 b 118 -25 79 -99 51 -178 b 47 -190 59 -197 69 -197 b 82 -198 96 -190 103 -179 b 149 -106 186 -28 225 49 b 263 124 301 200 339 276 b 413 424 486 572 572 714 b 581 730 572 747 554 750 z"},"[":{"x_min":0,"x_max":287,"ha":287,"o":"m 150 764 b 151 784 150 806 155 826 b 162 850 188 840 206 834 b 221 829 251 854 231 861 b 199 873 166 886 134 870 b 95 851 89 808 82 771 b 67 685 61 598 56 512 b 46 337 50 162 55 -13 b 57 -55 52 -106 71 -145 b 92 -188 139 -204 183 -190 b 203 -184 231 -166 229 -141 b 227 -115 197 -115 178 -119 b 193 -116 182 -118 178 -113 b 174 -106 169 -103 166 -95 b 158 -78 159 -59 158 -41 b 156 5 155 51 153 97 b 151 187 148 276 147 365 b 146 453 146 542 147 631 b 148 675 149 719 150 764 z"},"6":{"x_min":0,"x_max":509,"ha":509,"o":"m 302 710 b 359 724 413 681 423 626 b 426 608 461 620 459 636 b 449 690 406 735 350 741 b 288 749 226 717 184 673 b 136 624 106 557 84 493 b 61 426 51 354 50 283 b 49 214 61 144 81 78 b 99 18 127 -43 181 -79 b 232 -114 302 -120 356 -89 b 409 -59 437 1 440 60 b 444 135 380 167 314 167 b 261 168 211 148 167 118 b 167 120 166 121 166 123 b 150 176 142 231 139 285 b 135 389 153 494 194 589 b 215 637 247 697 302 710 z m 293 134 b 345 140 399 117 398 58 b 397 20 376 -47 332 -53 b 290 -58 253 -34 227 -4 b 206 21 191 51 180 82 b 212 108 250 130 293 134 z"},"r":{"x_min":0,"x_max":277,"ha":277,"o":"m 279 134 b 269 88 260 41 246 -4 b 240 -21 204 -133 180 -123 b 165 -116 163 -88 162 -75 b 159 -51 159 -27 158 -3 b 158 47 163 97 166 147 b 168 178 119 171 96 151 b 77 143 61 147 48 158 b 80 219 103 288 103 357 b 103 389 94 429 56 435 b 23 441 -13 419 -32 393 b -75 335 -84 237 -47 174 b -20 128 34 109 82 122 b 76 63 72 2 83 -56 b 93 -103 117 -162 175 -155 b 227 -149 248 -88 265 -46 b 287 13 300 75 311 137 b 314 156 281 148 279 134 z m 10 226 b 1 274 5 327 22 372 b 25 379 29 395 36 398 b 50 405 61 380 63 371 b 69 345 64 314 59 289 b 52 252 41 218 26 184 b 18 198 13 213 10 226 z"},"2":{"x_min":0,"x_max":484,"ha":484,"o":"m 388 431 b 389 498 383 567 359 631 b 341 683 308 732 249 741 b 185 751 131 696 101 645 b 79 610 35 521 87 493 b 101 485 128 508 111 518 b 84 534 112 596 121 615 b 136 648 159 682 190 702 b 270 751 297 615 302 563 b 319 410 293 245 229 104 b 212 68 193 32 169 1 b 165 -4 162 -8 158 -12 b 126 -15 95 -29 71 -53 b 54 -71 36 -105 68 -118 b 97 -130 136 -112 160 -97 b 179 -86 196 -72 212 -56 b 236 -68 258 -84 282 -96 b 330 -120 390 -124 429 -81 b 447 -61 413 -54 400 -69 b 357 -116 282 -51 238 -28 b 257 -5 274 21 288 47 b 352 163 385 298 388 431 z"},"{":{"x_min":0,"x_max":488,"ha":488,"o":"m 410 -158 b 356 -185 302 -129 281 -85 b 253 -26 245 42 239 106 b 234 172 233 240 221 305 b 212 352 190 393 152 412 b 195 475 222 549 242 623 b 253 666 264 709 276 751 b 286 783 304 879 354 861 b 368 856 396 879 377 887 b 275 929 217 750 192 684 b 157 587 128 482 60 402 b 40 379 52 354 83 355 b 111 356 128 318 134 296 b 143 262 145 226 148 192 b 153 122 154 51 170 -17 b 185 -77 209 -139 260 -176 b 310 -213 376 -214 429 -182 b 451 -169 430 -149 410 -158 z"},"9":{"x_min":0,"x_max":524,"ha":524,"o":"m 77 396 b 128 354 203 394 245 429 b 284 463 317 504 344 548 b 348 531 353 514 357 498 b 366 459 373 420 377 381 b 386 304 386 226 375 149 b 366 83 352 -2 302 -52 b 281 -72 256 -68 235 -49 b 207 -24 200 14 195 49 b 190 82 136 58 134 32 b 131 -30 154 -106 220 -127 b 297 -151 371 -95 409 -33 b 448 31 462 105 469 178 b 477 251 475 324 464 397 b 458 438 448 479 436 519 b 430 538 424 557 416 575 b 408 596 393 613 382 632 b 375 643 361 642 350 636 b 346 652 335 665 319 673 b 292 686 259 679 232 670 b 176 651 126 614 91 565 b 59 521 24 440 77 396 z m 172 609 b 193 626 218 638 243 646 b 270 654 325 652 317 610 b 316 602 320 599 326 598 b 307 547 277 500 239 462 b 216 440 189 417 158 410 b 122 403 92 423 88 459 b 81 516 129 577 172 609 z"}," ":{"x_min":0,"x_max":264,"ha":264,"o":""},"I":{"x_min":0,"x_max":556,"ha":556,"o":"m 52 550 b 47 541 53 533 64 534 b 84 538 101 546 116 560 b 129 571 114 580 101 577 b 126 614 157 647 190 678 b 233 718 279 756 326 790 b 327 791 329 792 330 793 b 322 657 324 520 331 385 b 334 299 340 214 350 129 b 354 86 359 44 366 2 b 369 -14 371 -31 374 -47 b 342 -62 313 -81 287 -105 b 267 -121 291 -137 307 -123 b 329 -103 354 -87 380 -74 b 384 -90 389 -105 397 -119 b 409 -138 445 -123 449 -104 b 453 -86 454 -67 454 -48 b 469 -45 485 -42 501 -41 b 520 -39 535 -9 509 -11 b 490 -13 471 -16 453 -20 b 451 -5 450 10 449 25 b 446 67 442 110 438 153 b 432 239 426 325 423 411 b 418 559 422 707 426 856 b 443 866 460 875 477 884 b 504 898 532 910 561 916 b 586 921 638 916 624 878 b 617 858 655 865 661 881 b 669 904 657 929 635 940 b 608 954 573 948 544 940 b 503 929 464 910 427 888 b 427 900 428 912 428 925 b 429 948 396 950 381 945 b 359 939 340 923 338 900 b 335 875 334 851 332 827 b 279 790 229 750 182 707 b 131 661 83 612 52 550 z"},"H":{"x_min":0,"x_max":819,"ha":819,"o":"m 183 134 b 204 137 224 140 245 144 b 247 134 248 123 250 112 b 255 82 261 53 269 24 b 276 -2 283 -30 302 -50 b 316 -63 356 -46 352 -26 b 345 0 345 29 342 56 b 338 85 335 114 332 144 b 332 150 331 155 331 161 b 363 167 395 173 428 177 b 472 182 527 185 577 175 b 583 85 591 -4 607 -92 b 614 -132 676 -117 697 -87 b 697 -87 697 -87 697 -87 b 730 -44 746 12 739 66 b 733 108 712 141 680 164 b 673 242 668 321 664 399 b 661 476 659 553 657 630 b 656 668 656 706 655 744 b 716 778 780 810 847 832 b 886 844 927 855 968 858 b 1000 860 1038 855 1054 822 b 1061 807 1095 823 1088 839 b 1061 896 985 889 933 880 b 855 867 780 837 709 802 b 691 792 672 783 654 773 b 653 803 650 833 646 863 b 645 863 645 862 645 862 b 645 869 641 875 631 878 b 614 883 583 871 580 851 b 574 809 571 767 570 724 b 484 671 402 611 326 545 b 328 588 330 631 331 673 b 332 696 300 698 284 694 b 263 688 243 671 241 648 b 237 585 234 521 232 458 b 208 433 185 408 162 383 b 138 355 114 326 94 295 b 76 266 56 231 51 196 b 40 120 134 127 183 134 z m 699 -24 b 694 21 689 67 685 112 b 711 74 713 21 699 -24 z m 569 693 b 569 665 569 637 568 610 b 567 532 568 455 570 378 b 571 320 573 262 576 204 b 495 217 411 204 328 187 b 325 231 323 276 322 320 b 321 383 323 446 325 508 b 401 577 483 639 569 693 z m 93 172 b 70 200 102 250 117 275 b 147 327 189 374 232 418 b 231 374 231 330 233 287 b 235 248 238 209 242 170 b 222 166 202 163 182 160 b 155 157 113 148 93 172 z"},"4":{"x_min":0,"x_max":407,"ha":407,"o":"m 110 694 b 93 632 76 569 65 505 b 54 445 46 382 52 322 b 57 274 80 233 130 221 b 170 211 208 221 246 232 b 248 167 253 102 262 37 b 266 3 272 -31 281 -65 b 288 -91 295 -131 332 -117 b 341 -113 352 -108 356 -97 b 358 -92 358 -85 355 -81 b 355 -80 355 -78 355 -76 b 355 -72 355 -67 355 -63 b 355 -54 355 -46 355 -37 b 355 -21 354 -5 354 11 b 352 44 350 76 348 109 b 344 174 341 240 339 305 b 336 435 342 564 351 694 b 353 713 326 717 313 714 b 296 711 271 698 269 679 b 249 541 243 400 245 261 b 213 250 179 241 146 252 b 95 268 89 323 89 368 b 89 480 118 589 145 697 b 150 717 115 710 110 694 z"},"D":{"x_min":0,"x_max":907,"ha":907,"o":"m 149 -247 b 274 -294 426 -246 535 -179 b 651 -107 738 5 788 131 b 842 268 849 421 822 564 b 811 627 793 690 764 747 b 785 761 805 775 827 788 b 883 822 947 854 1012 865 b 1040 870 1069 869 1089 847 b 1102 834 1136 856 1122 871 b 1078 917 1003 895 951 877 b 881 853 817 817 756 776 b 754 774 753 773 751 772 b 750 773 749 774 748 776 b 717 827 663 889 599 895 b 532 902 478 850 443 799 b 401 739 375 669 355 599 b 331 517 313 432 301 347 b 299 344 296 341 294 339 b 293 359 293 379 293 398 b 291 539 304 679 312 819 b 313 843 280 844 265 840 b 243 834 224 818 222 795 b 207 652 201 508 204 365 b 205 324 207 282 211 240 b 179 199 149 157 122 112 b 84 49 51 -19 50 -94 b 49 -160 86 -223 149 -247 z m 352 449 b 366 518 383 586 405 653 b 427 715 455 782 503 830 b 526 853 556 872 589 867 b 622 861 647 836 664 809 b 678 786 691 761 701 736 b 595 654 501 558 409 462 b 386 438 364 415 342 391 b 345 410 348 430 352 449 z m 127 45 b 151 98 182 147 216 194 b 218 181 219 167 222 154 b 227 124 233 93 242 64 b 251 36 263 -4 288 -22 b 304 -33 333 -20 334 0 b 334 16 327 31 324 46 b 322 54 320 63 318 72 b 317 161 322 249 334 337 b 344 348 354 359 364 370 b 459 473 556 576 663 667 b 679 681 695 694 712 707 b 721 680 728 653 734 625 b 760 497 766 362 737 234 b 710 117 654 7 565 -75 b 486 -147 384 -194 278 -200 b 223 -203 156 -193 123 -144 b 85 -85 99 -15 127 45 z"},"^":{"x_min":0,"x_max":271,"ha":271,"o":"m 204 682 b 196 710 179 729 148 724 b 117 718 100 694 84 669 b 69 644 54 616 50 587 b 46 553 93 570 103 585 b 114 601 123 617 132 633 b 133 634 133 634 133 634 b 133 629 134 625 134 620 b 136 601 137 581 140 562 b 145 519 223 548 221 584 b 219 617 213 650 204 682 z"},"0":{"x_min":0,"x_max":449,"ha":449,"o":"m 248 -100 b 302 -77 334 -15 354 38 b 377 99 389 165 395 230 b 407 358 395 505 332 620 b 304 672 255 735 190 732 b 121 729 78 670 52 613 b 42 593 76 595 82 609 b 104 654 144 722 205 701 b 251 685 285 630 306 588 b 355 486 367 364 360 252 b 357 196 348 137 331 83 b 315 35 291 -27 248 -57 b 202 -89 179 8 174 36 b 164 94 163 154 164 213 b 167 353 185 492 199 632 b 201 654 168 658 154 655 b 135 652 106 636 103 614 b 84 468 68 318 73 171 b 76 105 80 30 109 -31 b 135 -85 186 -127 248 -100 z"},"F":{"x_min":0,"x_max":795,"ha":795,"o":"m 464 370 b 489 334 504 296 513 256 b 514 242 514 228 515 214 b 493 201 472 188 451 173 b 432 159 454 145 470 156 b 485 167 501 177 517 187 b 518 156 521 125 524 95 b 528 63 533 31 539 -1 b 540 -4 540 -8 541 -12 b 543 -25 545 -38 548 -51 b 548 -53 549 -55 551 -57 b 555 -71 561 -85 569 -97 b 580 -111 608 -101 612 -85 b 619 -52 614 -17 612 15 b 610 49 608 83 606 117 b 604 156 603 194 602 232 b 634 247 667 260 701 271 b 720 277 723 304 700 297 b 666 286 633 273 601 259 b 601 280 601 300 601 321 b 602 457 612 592 620 727 b 621 750 588 752 573 748 b 551 742 532 726 530 702 b 519 591 513 480 512 368 b 492 403 466 433 433 454 b 383 486 323 493 266 486 b 221 480 177 465 135 447 b 242 550 361 640 486 721 b 629 814 784 898 954 928 b 999 935 1052 946 1097 932 b 1135 921 1173 877 1148 837 b 1135 817 1173 818 1182 833 b 1200 863 1194 899 1173 926 b 1147 958 1105 967 1066 967 b 974 969 879 943 793 912 b 614 846 449 738 298 623 b 211 558 129 486 55 407 b 40 391 62 381 75 388 b 143 422 214 458 292 459 b 362 460 425 428 464 370 z"},"`":{"x_min":0,"x_max":179,"ha":179,"o":"m 128 643 b 108 685 114 729 108 773 b 105 801 54 785 52 763 b 46 714 52 662 80 619 b 93 599 138 621 128 643 z"},"k":{"x_min":0,"x_max":407,"ha":407,"o":"m 411 137 b 395 102 375 67 349 37 b 337 23 323 8 306 0 b 286 -9 271 -3 255 10 b 226 33 208 63 189 94 b 173 122 151 149 119 156 b 126 170 134 184 143 198 b 157 218 211 292 239 261 b 258 242 308 280 279 297 b 235 324 172 273 144 242 b 119 214 100 182 83 149 b 83 151 83 153 82 155 b 82 164 81 174 80 183 b 120 285 159 387 193 491 b 213 553 232 615 244 680 b 254 737 262 802 248 859 b 236 907 193 933 146 911 b 91 886 60 824 40 770 b -5 651 -19 521 -21 394 b -22 322 -19 251 -12 179 b -9 144 -5 108 1 73 b 7 37 12 -3 30 -35 b 41 -57 82 -39 86 -19 b 92 16 91 55 88 92 b 93 103 98 114 103 125 b 107 118 108 108 111 102 b 115 91 119 81 124 71 b 134 51 146 31 159 13 b 186 -22 224 -40 268 -36 b 354 -30 410 63 441 133 b 451 153 417 152 411 137 z m 76 253 b 75 279 74 304 74 329 b 71 444 80 558 98 672 b 106 724 115 778 135 827 b 141 843 152 872 169 881 b 198 896 213 850 216 830 b 227 774 218 712 207 656 b 196 599 179 544 161 488 b 135 409 106 331 76 253 z"},"u":{"x_min":0,"x_max":402,"ha":402,"o":"m 403 146 b 396 105 382 61 355 29 b 347 20 343 15 334 24 b 328 30 324 38 321 45 b 313 63 310 82 306 100 b 299 143 296 187 295 230 b 295 276 299 322 296 368 b 292 411 214 384 209 352 b 208 346 207 339 207 332 b 194 276 186 219 175 163 b 169 134 162 105 153 77 b 148 62 132 9 111 15 b 92 19 87 63 83 78 b 76 107 71 137 69 167 b 63 232 71 297 70 362 b 70 404 -9 378 -13 347 b -25 271 -28 188 -12 112 b 0 59 29 -37 102 -18 b 167 -2 185 65 199 122 b 202 135 205 147 207 160 b 212 108 221 51 256 10 b 287 -26 342 -23 375 10 b 410 45 429 101 436 149 b 439 168 405 161 403 146 z"},"]":{"x_min":0,"x_max":287,"ha":287,"o":"m 213 736 b 211 759 207 781 202 803 b 198 822 195 843 182 858 b 153 892 102 874 68 861 b 61 859 49 852 50 842 b 51 833 62 831 70 834 b 89 840 110 847 124 828 b 136 813 134 786 136 768 b 138 723 139 678 139 633 b 141 542 141 451 140 360 b 139 269 137 178 134 87 b 133 41 131 -5 130 -52 b 129 -71 130 -91 125 -109 b 125 -109 123 -113 122 -116 b 101 -116 78 -128 67 -144 b 57 -158 53 -183 75 -190 b 117 -203 163 -188 193 -156 b 223 -125 229 -85 230 -44 b 233 43 235 131 237 218 b 240 391 236 565 213 736 z m 118 -124 b 117 -123 118 -122 120 -121 b 119 -123 118 -125 118 -124 z"},"U":{"x_min":0,"x_max":1078,"ha":1078,"o":"m 949 738 b 942 700 934 662 927 624 b 900 472 877 319 875 164 b 874 91 876 17 891 -55 b 903 -115 923 -180 970 -223 b 992 -242 1019 -254 1048 -256 b 1070 -258 1094 -248 1105 -228 b 1115 -211 1107 -192 1087 -190 b 1026 -184 996 -115 980 -64 b 957 9 951 87 949 164 b 944 325 962 485 982 645 b 987 686 992 726 997 767 b 1001 804 1008 842 1008 879 b 1008 901 1008 943 977 942 b 948 942 926 910 911 889 b 870 834 845 767 822 703 b 796 633 777 561 759 489 b 723 345 696 199 647 59 b 627 3 597 -83 533 -103 b 469 -123 450 3 446 42 b 428 200 456 358 459 516 b 461 623 471 820 332 849 b 272 862 211 829 168 790 b 121 747 86 692 66 632 b 49 578 40 511 68 459 b 99 402 170 392 229 403 b 260 408 290 421 317 438 b 337 450 314 464 299 454 b 245 421 148 406 107 468 b 73 518 86 591 106 644 b 127 703 165 758 216 794 b 243 812 276 827 309 821 b 337 816 356 791 366 766 b 377 740 378 713 380 685 b 382 648 382 611 381 575 b 380 497 371 421 364 344 b 357 269 351 194 351 118 b 350 48 354 -27 386 -91 b 400 -119 422 -144 454 -153 b 484 -161 518 -154 546 -141 b 602 -114 638 -57 662 -2 b 716 123 742 261 772 392 b 804 531 837 670 896 800 b 910 830 925 860 946 887 b 950 892 955 898 960 903 b 961 905 964 907 966 909 b 967 901 970 893 970 885 b 971 876 971 866 970 856 b 968 817 957 777 949 738 z"},"o":{"x_min":0,"x_max":264,"ha":264,"o":"m 285 162 b 259 154 230 147 201 145 b 207 177 209 210 207 242 b 202 322 161 441 58 409 b -32 382 -48 271 -2 199 b 1 193 5 188 9 184 b -5 144 -14 101 0 60 b 14 18 60 -9 104 2 b 148 13 172 57 187 96 b 190 103 192 110 194 117 b 226 119 258 127 287 137 b 305 144 308 170 285 162 z m 130 62 b 118 47 107 37 89 50 b 75 60 70 77 68 93 b 67 108 67 122 70 136 b 97 123 127 117 158 116 b 152 96 143 77 130 62 z m 165 144 b 134 146 105 154 78 171 b 83 186 89 202 94 217 b 100 236 80 245 65 244 b 50 243 37 236 28 226 b 5 266 0 317 27 356 b 49 387 88 393 117 370 b 146 347 158 306 164 271 b 170 234 173 187 165 144 z"},"N":{"x_min":0,"x_max":775,"ha":775,"o":"m 1038 -209 b 1029 -204 1016 -211 1009 -217 b 943 -278 839 -324 764 -251 b 693 -182 682 -66 673 27 b 651 250 689 472 691 695 b 692 747 688 800 672 849 b 660 886 635 919 594 924 b 552 929 506 906 471 885 b 431 861 396 831 362 799 b 288 729 221 651 163 567 b 135 526 108 484 87 439 b 67 397 47 348 50 301 b 58 193 202 195 286 187 b 288 168 289 148 291 129 b 297 68 303 -1 331 -56 b 339 -73 360 -71 376 -61 b 381 -60 386 -57 389 -54 b 440 -6 516 113 443 173 b 425 187 403 196 381 202 b 379 249 379 297 380 345 b 382 474 387 603 390 732 b 391 749 374 756 358 756 b 386 785 416 812 447 836 b 466 851 486 864 507 874 b 528 885 562 903 586 892 b 626 874 624 805 624 770 b 625 716 620 662 615 608 b 593 386 558 158 592 -65 b 608 -172 646 -285 757 -325 b 862 -363 966 -303 1040 -230 b 1046 -224 1047 -213 1038 -209 z m 159 234 b 138 241 117 250 102 267 b 85 289 84 317 89 343 b 98 396 123 445 150 490 b 191 559 239 624 292 685 b 284 561 282 437 283 313 b 283 281 284 248 285 216 b 243 220 199 222 159 234 z m 438 102 b 439 63 421 25 397 -7 b 395 47 385 101 383 155 b 382 159 382 164 382 169 b 412 158 437 138 438 102 z"},"+":{"x_min":0,"x_max":386,"ha":386,"o":"m 326 262 b 293 263 261 263 228 264 b 228 268 228 272 228 276 b 229 306 231 337 232 367 b 233 398 237 430 227 459 b 223 474 199 473 188 470 b 172 466 157 454 152 438 b 141 407 144 371 143 338 b 142 314 142 290 142 266 b 139 267 136 267 132 267 b 110 267 89 270 67 266 b 57 265 41 247 56 241 b 75 233 97 234 118 233 b 126 232 134 232 142 231 b 143 203 144 174 147 145 b 150 121 151 85 178 78 b 192 74 211 87 215 100 b 227 140 228 185 228 229 b 256 229 285 229 313 231 b 327 232 350 261 326 262 z"},"G":{"x_min":0,"x_max":706,"ha":706,"o":"m 813 -59 b 810 -66 812 -74 821 -75 b 843 -77 866 -60 865 -36 b 863 -6 823 -1 800 2 b 733 9 666 1 600 -9 b 618 66 627 144 630 220 b 631 266 631 312 626 358 b 621 402 618 460 591 496 b 579 512 549 501 544 483 b 542 476 541 470 540 463 b 491 335 439 198 342 99 b 330 87 312 69 293 69 b 275 69 261 78 250 90 b 227 116 217 154 212 187 b 201 260 204 336 219 409 b 234 481 260 552 293 618 b 308 647 324 675 344 700 b 362 721 383 747 410 757 b 442 768 463 743 472 715 b 471 715 470 714 469 713 b 429 691 391 666 356 637 b 325 611 290 579 276 540 b 264 508 274 473 311 469 b 347 464 385 486 412 508 b 474 555 517 631 518 710 b 518 711 518 711 518 712 b 533 719 549 726 564 732 b 584 740 603 747 623 753 b 645 759 669 768 690 757 b 704 750 731 773 713 782 b 675 801 627 781 590 768 b 564 759 540 749 515 737 b 509 767 492 795 465 810 b 422 833 367 807 332 780 b 259 723 215 639 181 555 b 144 465 119 365 122 267 b 125 189 141 59 233 34 b 278 23 326 47 359 77 b 395 111 424 153 450 195 b 486 253 514 316 539 380 b 540 346 541 313 540 279 b 540 212 536 144 526 78 b 520 44 514 9 505 -25 b 440 -38 375 -53 311 -71 b 241 -92 166 -117 106 -162 b 82 -180 58 -205 52 -236 b 45 -270 61 -298 87 -317 b 144 -359 219 -371 287 -358 b 439 -330 543 -197 587 -56 b 588 -50 590 -45 592 -39 b 602 -38 612 -36 621 -35 b 657 -30 693 -26 729 -26 b 750 -25 771 -26 791 -29 b 798 -30 806 -30 813 -33 b 824 -37 825 -47 837 -47 b 828 -47 817 -51 813 -59 z m 457 603 b 443 575 423 549 398 528 b 380 513 338 481 313 500 b 279 529 339 587 358 605 b 388 633 423 657 458 679 b 464 683 470 686 476 690 b 477 660 469 629 457 603 z m 390 -243 b 354 -279 308 -302 258 -308 b 208 -313 132 -302 105 -253 b 73 -197 172 -153 209 -137 b 268 -111 332 -94 394 -79 b 428 -70 462 -63 497 -56 b 475 -126 443 -192 390 -243 z"},"q":{"x_min":0,"x_max":424,"ha":424,"o":"m 333 -33 b 324 -26 312 -18 305 -9 b 292 9 309 23 320 35 b 360 77 405 115 453 149 b 472 162 450 175 435 165 b 398 140 362 112 329 81 b 320 72 306 61 293 48 b 301 155 324 259 334 366 b 336 388 305 391 291 389 b 273 385 253 374 244 358 b 244 358 244 358 244 358 b 222 387 192 396 157 395 b 75 391 16 311 -8 240 b -33 171 -39 73 7 10 b 30 -21 68 -33 104 -21 b 139 -8 164 19 181 51 b 188 65 194 80 200 95 b 198 68 196 42 194 16 b 191 -41 191 -98 197 -154 b 202 -204 213 -256 239 -299 b 262 -336 297 -367 341 -369 b 383 -372 423 -352 442 -315 b 482 -240 452 -142 396 -85 b 377 -65 354 -50 333 -33 z m 166 91 b 157 69 130 -3 97 19 b 66 40 61 87 59 120 b 54 190 70 262 115 317 b 133 340 164 367 194 346 b 212 334 221 316 227 295 b 209 227 192 157 166 91 z m 422 -259 b 420 -277 415 -318 395 -325 b 360 -337 331 -293 319 -268 b 299 -226 294 -178 291 -132 b 289 -103 289 -74 289 -45 b 293 -48 296 -51 300 -54 b 318 -69 338 -82 356 -98 b 386 -126 408 -164 417 -204 b 421 -222 423 -241 422 -259 z"},"d":{"x_min":0,"x_max":525,"ha":525,"o":"m 526 153 b 515 94 503 33 473 -19 b 460 -41 435 -79 407 -56 b 385 -37 375 -12 366 15 b 332 118 323 226 321 333 b 390 459 452 594 487 732 b 499 780 525 870 479 909 b 423 955 352 885 322 842 b 279 783 260 704 247 633 b 234 556 228 477 226 399 b 226 391 226 383 226 376 b 207 391 183 396 156 395 b 74 391 15 311 -9 240 b -34 171 -40 72 6 10 b 29 -21 67 -33 103 -21 b 138 -8 163 19 180 51 b 201 92 214 137 226 181 b 229 190 231 199 234 208 b 235 193 237 178 239 163 b 248 92 263 15 307 -43 b 329 -74 356 -96 395 -96 b 429 -96 457 -83 479 -58 b 529 0 544 82 558 155 b 562 174 529 167 526 153 z m 165 91 b 156 69 129 -3 96 19 b 65 40 60 87 58 120 b 53 190 69 262 114 317 b 132 340 163 367 193 346 b 211 334 220 316 226 295 b 208 227 191 157 165 91 z m 370 767 b 377 789 409 903 446 878 b 465 865 464 834 463 814 b 462 780 455 746 445 713 b 416 606 372 501 321 401 b 322 524 335 649 370 767 z"},"1":{"x_min":0,"x_max":372,"ha":372,"o":"m 268 -54 b 276 19 276 92 280 165 b 283 237 285 309 286 381 b 288 453 289 527 278 598 b 274 628 269 663 254 689 b 243 708 225 731 203 734 b 176 739 152 720 135 701 b 107 672 81 641 54 611 b 39 594 68 589 79 601 b 105 630 131 660 158 688 b 170 701 191 719 203 694 b 210 680 208 659 208 643 b 209 563 206 484 200 404 b 194 324 187 244 183 163 b 178 82 170 0 171 -81 b 171 -82 171 -83 171 -84 b 146 -86 123 -92 99 -102 b 82 -109 85 -134 105 -126 b 144 -112 180 -113 220 -116 b 254 -119 285 -116 314 -97 b 320 -93 325 -83 319 -76 b 312 -69 299 -75 293 -79 b 280 -87 265 -89 250 -88 b 260 -80 267 -68 268 -54 z"},"5":{"x_min":0,"x_max":565,"ha":565,"o":"m 65 398 b 62 377 62 351 78 335 b 98 316 129 319 154 320 b 204 321 257 334 305 313 b 379 279 413 190 406 112 b 403 72 389 33 366 0 b 348 -26 318 -60 285 -63 b 240 -68 208 -16 195 20 b 179 63 181 113 189 158 b 199 207 117 185 107 151 b 80 61 91 -56 176 -112 b 278 -179 401 -90 454 -1 b 503 81 514 189 470 275 b 448 318 414 354 371 376 b 318 402 259 397 202 392 b 190 391 165 386 153 391 b 153 391 153 392 153 393 b 152 401 152 408 153 416 b 157 447 170 477 180 506 b 190 537 202 568 212 599 b 220 623 230 648 237 672 b 273 682 308 691 345 694 b 384 696 456 700 469 651 b 475 627 516 643 515 664 b 513 755 362 728 308 718 b 287 714 265 708 244 702 b 247 732 200 715 190 700 b 187 696 185 692 182 688 b 180 687 179 687 177 687 b 156 684 135 686 116 696 b 105 702 77 726 85 741 b 96 761 62 759 55 745 b 39 717 66 685 90 672 b 113 658 139 655 165 657 b 147 621 131 583 116 547 b 96 499 72 449 65 398 z m 153 391 b 157 389 154 385 153 391 z"}}}
